<?xml version="1.0" encoding="iso-8859-1"?>
<!-- Uploaded to: SVG Repo, www.svgrepo.com, Generator: SVG Repo Mixer Tools -->
<svg height="800px" width="800px" version="1.1" id="Layer_1" xmlns="http://www.w3.org/2000/svg" xmlns:xlink="http://www.w3.org/1999/xlink" 
	 viewBox="0 0 392.734 392.734" xml:space="preserve">
<path style="fill:#FFFFFF;" d="M247.821,288.065l62.19-62.19c39.305-40.598,40.21-102.465,0-143.127
	c-40.792-40.598-106.02-38.012-143.127,0l-62.19,62.19c-12.024,12.024-27.345,20.105-44.218,23.208l-28.509,5.172
	c-8.857,1.099-13.705,12.541-6.465,20.881L198.69,367.321c7.37,7.176,19.394,2.65,20.881-6.465l5.172-28.509
	C227.716,315.475,235.797,300.218,247.821,288.065z"/>
<path style="fill:#56ACE0;" d="M294.625,98.133c-14.998-14.998-42.602-27.669-69.301-22.109l31.16,31.16
	c4.267,4.267,4.267,11.119,0,15.386c-4.267,4.267-11.119,4.267-15.386,0l-38.917-38.982c-17.39,7.628-27.669,22.303-27.669,22.303
	l14.158,14.158c4.267,4.267,4.267,11.119,0,15.386c-4.267,4.267-11.119,4.267-15.386,0l-14.158-14.158l-39.046,39.046
	c-27.281,28.186-66.457,31.16-66.457,31.16L201.34,339.135c0,0,0.259-37.172,31.16-66.457l62.125-62.19
	C325.655,179.523,325.655,129.099,294.625,98.133z"/>
<path style="fill:#FFC10D;" d="M73.793,273.261c-14.675,5.042-24.566,18.747-24.566,34.133c0,20.04,16.291,36.331,36.267,36.331
	c15.774,0,29.22-9.956,34.133-24.566L73.793,273.261L73.793,273.261z"/>
<circle style="fill:#FFFFFF;" cx="344.338" cy="48.162" r="26.634"/>
<path style="fill:#194F82;" d="M392.564,48.162C392.564,21.592,371.037,0,344.403,0c-25.794,0-46.739,20.234-48.032,45.77
	c-49.067-25.6-107.96-15.838-144.743,21.657l-62.19,62.19c-8.986,8.986-20.234,14.869-32.711,17.131l-28.509,5.172
	c-29.156,6.594-36.267,37.689-18.101,57.665l47.321,47.321c-18.23,10.149-29.996,29.285-29.996,50.554
	c0,32,26.053,58.053,58.053,58.053c21.657,0,40.727-11.766,50.683-29.802l47.127,47.127c21.527,20.04,53.139,7.434,57.665-18.036
	l5.172-28.509c2.263-12.412,8.21-23.725,17.067-32.711l62.19-62.19c36.461-35.879,47.903-93.479,21.463-145.067
	C372.33,94.901,392.564,73.891,392.564,48.162z M85.558,343.596c-20.04,0-36.267-16.291-36.267-36.331
	c0-15.386,9.891-29.026,24.566-34.133l0,0l45.834,45.834C114.779,333.64,101.268,343.596,85.558,343.596z M310.14,225.875
	l-62.255,62.19c-12.024,12.024-20.105,27.345-23.079,44.218l-5.172,28.509c-1.422,9.18-13.446,13.705-20.881,6.465L25.567,194.198
	c-7.176-8.339-2.392-19.782,6.465-20.881l28.509-5.172c16.873-3.103,32.065-11.055,44.218-23.208l62.19-62.19
	c37.107-38.012,102.335-40.598,143.127,0C350.286,123.41,349.381,185.277,310.14,225.875z M344.338,74.796
	c-14.675,0-26.634-11.895-26.634-26.634s11.895-26.634,26.634-26.634c14.675,0,26.634,11.895,26.634,26.634
	S359.013,74.796,344.338,74.796z"/>
</svg>