<?xml version="1.0" encoding="UTF-8"?>
<svg viewBox="0 0 352 360" xmlns="http://www.w3.org/2000/svg">
 <g label="Layer 1">
  <path d="m146.47 113.51c-59.417-6.379-112.47 39.311-118.5 102.05-6.059 62.737 37.2 118.76 96.618 125.15 45.25 4.858 86.827-20.472 106.73-60.548 9.0996 2.5554 38.635 2.948 60.915 9.7289 34.176 10.401 45.345 27.678 45.345 27.678 12.531-14.047 2.1383-39.776-5.7157-51.458-19.504-29.01-79.162-70.766-93.999-79.539l-2.7795-4.0275c-14.913-37.07-47.991-64.67-88.623-69.032l0.0092-0.0024z" fill="#698000" stroke="#000" stroke-linecap="round" stroke-linejoin="round" stroke-width="4" label="Layer 1"/>
  <path transform="translate(0 -1) matrix(1 0 0 1 -202.53 -352.59)" d="m446.55 579.07c0.019839 66.93-53.794 121.2-120.19 121.2-66.394-0.01-120.21-54.28-120.19-121.21-0.014879-66.93 53.804-121.19 120.2-121.19s120.21 54.28 120.18 121.2z" fill="#698000" stroke="#000" stroke-linecap="round" stroke-linejoin="round" stroke-width="3.2874" label="Layer 1"/>
  <path transform="translate(.013695 -2) matrix(1 0 0 1 -202.54 -350.59)" d="m329.8 685.54c-45.391 0.014786-82.196-40.696-82.196-90.922 0.0065076-50.227 36.812-90.936 82.203-90.922 45.391-0.011089 82.19 40.703 82.19 90.929s-36.812 90.936-82.196 90.914z" fill="#f2ffcf" fill-opacity=".30137" label="Layer 1"/>
  <path transform="translate(.013695 -2) matrix(1 0 0 1 -202.54 -350.59)" d="m439.19 537.51c0.09 1.86 0 3.76 0.14 5.63 7.34 94.55-54.28 142.15-121.16 142.15-52.278 0-103.5-48.6-113.86-100.61 2.935 64.28 56.049 115.56 121.05 115.56 66.88 0.01 121.16-54.27 121.16-121.15 0-14.6-2.58-28.61-7.33-41.58z" fill-opacity=".3137" label="Layer 1"/>
  <g transform="translate(49.175 295.44) matrix(1 0 0 .9255 -49.151 -275.28)" label="Layer 1">
   <path d="m49.158 339.91c-7e-3 19.19 15.546 21.63 34.732 21.63 19.19 0 34.74-2.44 34.73-21.63 0.01-19.18-16.19-29.77-34.727-34.74-28.83-7.73-34.74 15.55-34.735 34.74z" fill="#698000" stroke="#000" stroke-linecap="round" stroke-linejoin="round" stroke-width="4"/>
   <g fill="#fff" stroke="#000" stroke-linecap="round" stroke-linejoin="round" stroke-width="4">
    <path d="m110.93 350.73c1.39 5.19-2.75 7-8.08 8.43-5.325 1.43-9.818 1.92-11.206-3.26-1.391-5.18 1.802-10.54 7.127-11.97 5.329-1.43 10.769 1.62 12.159 6.8z"/>
    <path d="m75.869 356.35c-1.389 5.18-5.882 4.69-11.208 3.26s-9.467-3.25-8.076-8.43c1.388-5.18 6.832-8.23 12.158-6.8 5.325 1.42 8.517 6.78 7.126 11.97z"/>
    <path d="m93.027 355.5c2e-3 5.36-4.468 6.04-9.982 6.04s-9.983-0.68-9.981-6.05c-2e-3 -5.36 4.469-9.71 9.982-9.71 5.515 0 9.983 4.35 9.981 9.72z"/>
   </g>
   <path d="m94.888 308.97c4.751 6.23 7.672 14 7.662 23.61 0.01 22.69-15.55 25.59-34.736 25.59-2.97 0-5.842-0.09-8.593-0.29 6.294 3.05 15.017 3.67 24.666 3.67 19.183 0 34.743-2.46 34.743-21.65 0-15.25-10.24-25.05-23.742-30.93z" fill-opacity=".3137"/>
   <path d="m196.46 339.92c0 19.18-15.55 21.63-34.74 21.63-19.18 0-34.74-2.45-34.73-21.64-0.01-19.18 16.2-29.77 34.73-34.74 28.84-7.72 34.74 15.56 34.74 34.75z" fill="#698000" stroke="#000" stroke-linecap="round" stroke-linejoin="round" stroke-width="4"/>
   <g fill="#fff" stroke="#000" stroke-linecap="round" stroke-linejoin="round" stroke-width="4">
    <path d="m189.6 350.74c1.4 5.18-2.75 7-8.07 8.42-5.33 1.43-9.82 1.93-11.21-3.26-1.39-5.18 1.8-10.54 7.13-11.97 5.32-1.42 10.77 1.62 12.15 6.81z"/>
    <path d="m154.54 356.35c-1.38 5.19-5.88 4.69-11.2 3.26-5.33-1.43-9.47-3.24-8.08-8.43 1.39-5.18 6.83-8.23 12.16-6.8 5.32 1.43 8.51 6.79 7.12 11.97z"/>
    <path d="m171.7 355.5c0.01 5.37-4.46 6.05-9.98 6.05-5.51 0-9.98-0.69-9.98-6.05 0-5.37 4.47-9.72 9.98-9.72 5.52 0 9.99 4.35 9.98 9.72z"/>
   </g>
   <path d="m177.39 304.17c8.94 6.89 11.29 20.87 11.29 33.2 0 19.86-16.08 22.39-35.93 22.39-4.31 0-8.41-0.14-12.24-0.52 5.87 1.87 13.21 2.3 21.2 2.3 19.19 0 34.75-2.44 34.74-21.63 0.01-15.03-3.62-32.56-19.06-35.74z" fill-opacity=".3137"/>
  </g>
  <g transform="translate(.013695 -2) matrix(1 0 0 1 .01001 0)" stroke="#000" stroke-linecap="round" stroke-linejoin="round" stroke-width="4" label="Layer 1">
   <path d="m98.139 203.18c6.341 10.99 2.581 25.04-8.41 31.39-10.99 6.34-25.043 2.58-31.389-8.41-6.345-10.99-2.58-25.04 8.41-31.39 10.991-6.35 25.043-2.58 31.389 8.41z" fill="#698000"/>
   <path d="m85.473 220.17c4.305 2.49 6.023 7.57 3.84 11.35-2.184 3.78-7.443 4.83-11.748 2.35-4.305-2.49-6.023-7.57-3.84-11.35 2.184-3.78 7.443-4.84 11.748-2.35z" fill="#fff"/>
   <path d="m95.391 202.99c4.305 2.49 6.029 7.57 3.841 11.35-2.184 3.78-7.443 4.83-11.748 2.35-4.305-2.49-6.024-7.57-3.841-11.35 2.184-3.78 7.443-4.84 11.748-2.35z" fill="#fff"/>
   <path d="m94.682 214.01c4.305 2.49 6.028 7.57 3.841 11.35-2.185 3.78-7.444 4.84-11.749 2.35-4.304-2.48-6.023-7.56-3.84-11.35 2.184-3.78 7.443-4.83 11.748-2.35z" fill="#fff"/>
   <path d="m187.27 226.16c-6.34 10.99-20.39 14.76-31.38 8.41s-14.76-20.4-8.41-31.39c6.34-10.99 20.39-14.75 31.38-8.41 10.99 6.35 14.76 20.4 8.41 31.39z" fill="#698000"/>
   <path d="m160.9 220.61c-4.3 2.48-6.02 7.56-3.84 11.35 2.18 3.78 7.44 4.83 11.75 2.35 4.3-2.49 6.02-7.57 3.84-11.35-2.19-3.79-7.45-4.84-11.75-2.35z" fill="#fff"/>
   <path d="m150.98 203.43c-4.3 2.48-6.02 7.57-3.84 11.35s7.44 4.83 11.75 2.35c4.3-2.49 6.02-7.57 3.84-11.35-2.19-3.78-7.44-4.84-11.75-2.35z" fill="#fff"/>
   <path d="m151.69 214.45c-4.31 2.49-6.02 7.57-3.84 11.35s7.44 4.83 11.75 2.35c4.3-2.49 6.02-7.57 3.84-11.35-2.19-3.78-7.44-4.83-11.75-2.35z" fill="#fff"/>
  </g>
  <path transform="translate(.013695 -2) matrix(1 0 0 1 -202.54 -350.59)" d="m386.22 405.46c1.43 7.783 2.95 16.033 2.95 24.604 0 46.07-44.83 83.46-66.56 83.46-16.84 0-49.682-24.22-61.851-57.71 6.193 41.05 46.491 72.79 65.771 72.79 21.72 0 66.56-37.4 66.56-83.467 0-14.359-2.78-27.873-6.87-39.677z" fill-opacity=".3137" label="Layer 1"/>
  <path transform="translate(1 -2) matrix(1 0 0 1 -204.53 -357.59)" d="m342.21 492.22c-2.8193 10.058 26.685 36.846 30.095 31.138 3.4088-5.7177-0.7417-36.392-8.6464-40.945-7.4398-4.2899-18.486-0.76855-21.449 9.8074l4e-4 -4e-4z" fill="#fff" stroke="#000" stroke-linejoin="round" stroke-width="4" label="Layer 1"/>
  <g transform="translate(0 2) matrix(1 0 0 1 2.0237 -10)" label="Layer 1">
   <path d="m104.11 139.4c4.3 9.52-20.838 40.44-25.064 35.31-4.227-5.14-4.738-36.09 2.391-41.78 6.706-5.36 18.155-3.54 22.673 6.47z" fill="#fff" stroke="#000" stroke-linejoin="round" stroke-width="4"/>
   <path d="m104.11 139.39c4.29 9.52-20.854 40.47-25.08 35.33-0.408-0.49-0.76-1.23-1.094-2.15 5.75 1.78 25.984-29.17 21.012-37.89-0.68-1.2-1.475-2.26-2.322-3.18 3.068 1.5 5.764 4.1 7.484 7.89z" fill-opacity=".3137"/>
  </g>
  <g transform="translate(0 4) matrix(1 0 0 1 .023705 -2)" label="Layer 1">
   <path d="m183.51 45.123c6.44-4.18 10.7-11.428 10.69-19.674 0.01-12.95-10.49-23.449-23.44-23.449-6.78 0-12.88 2.882-17.16 7.484-8.87-4.732-19.08-7.383-30.46-7.383-11.76 0-22.16 2.656-31.101 7.408-4.281-4.616-10.396-7.509-17.188-7.509-12.95 0-23.444 10.499-23.442 23.449-1e-3 8.281 4.295 15.555 10.777 19.727-5.166 11.554-9.459 25.985-8.289 40.393 3.721 45.851 47.483 83.471 69.243 83.471 22.6 0 70.05-37.41 69.24-83.471-0.28-15.776-4.28-29.652-8.87-40.446z" fill="#698000" stroke="#000" stroke-linecap="round" stroke-linejoin="round" stroke-width="4"/>
   <path d="m185.25 45.876c1.48 7.783 3.07 16.033 3.07 24.604 0 46.07-46.64 83.46-69.24 83.46-17.52 0-51.692-24.22-64.352-57.709 6.442 41.049 48.372 72.789 68.422 72.789 22.6 0 69.24-37.4 69.24-83.467 0-14.359-2.89-27.873-7.14-39.677z" fill-opacity=".3137"/>
  </g>
  <g transform="translate(.013695 -2) matrix(1 0 0 1 .01001 0)" label="Layer 1">
   <path d="m92.48 26.647c4e-3 9.484-7.687 17.177-17.172 17.177-9.487 0-17.176-7.692-17.174-17.177-2e-3 -9.487 7.687-17.179 17.174-17.179 9.485 0 17.176 7.692 17.172 17.179z" fill="#fff" stroke="#000" stroke-linecap="round" stroke-linejoin="round" stroke-width="4"/>
   <path d="m85.325 29.677c2e-3 3.162-2.563 5.726-5.724 5.726-3.163 0-5.726-2.563-5.724-5.726-2e-3 -3.162 2.561-5.727 5.724-5.727 3.161 1e-3 5.726 2.565 5.724 5.727z"/>
   <path d="m153.13 26.647c0 9.484 7.69 17.177 17.18 17.177 9.48 0 17.17-7.692 17.17-17.177 0-9.487-7.69-17.179-17.17-17.179-9.49 0-17.18 7.692-17.18 17.179z" fill="#fff" stroke="#000" stroke-linecap="round" stroke-linejoin="round" stroke-width="4"/>
   <path d="m160.29 29.677c0 3.162 2.56 5.726 5.72 5.726 3.17 0 5.73-2.563 5.73-5.726 0-3.162-2.56-5.727-5.73-5.727-3.16 1e-3 -5.72 2.565-5.72 5.727z"/>
  </g>
  <g transform="translate(.013695 -2) matrix(1 0 0 1 .01001 0)" label="Layer 1">
   <path d="m136.66 144.32c-1.94 3.36-5.5 4.94-7.95 3.53-2.45-1.42-2.87-5.29-0.93-8.65s5.5-4.94 7.95-3.52c2.45 1.41 2.87 5.28 0.93 8.64z"/>
   <path d="m108.96 144.32c1.94 3.36 5.5 4.94 7.95 3.53 2.45-1.42 2.86-5.29 0.92-8.65s-5.5-4.94-7.95-3.52c-2.45 1.41-2.86 5.28-0.92 8.64z"/>
  </g>
  <path d="m124.33 162.98c-21.235 0.53056-67.978-102.16-57.708-126.78 10.271-24.618 100.8-26.88 111.76-2.7924 10.965 24.087-32.82 129.03-54.055 129.57l-0.0012175 0.003305z" fill="#f2ffcf" fill-opacity=".30137" fill-rule="evenodd" label="Layer 1"/>
  <g transform="rotate(180 327.99 251.91) matrix(.62484 0 0 .62484 270.9 155.86)" label="Layer 1">
   <path d="m104.11 139.4c4.3 9.52-20.838 40.44-25.064 35.31-4.227-5.14-4.738-36.09 2.391-41.78 6.706-5.36 18.155-3.54 22.673 6.47z" stroke="#000" stroke-linejoin="round" stroke-width="4"/>
   <path d="m104.11 139.39c4.29 9.52-20.854 40.47-25.08 35.33-0.408-0.49-0.76-1.23-1.094-2.15 5.75 1.78 25.984-29.17 21.012-37.89-0.68-1.2-1.475-2.26-2.322-3.18 3.068 1.5 5.764 4.1 7.484 7.89z" fill-opacity=".3137"/>
  </g>
  <g transform="rotate(180 304.89 226.3) matrix(.67813 0 0 .67813 242.94 122.06)" label="Layer 1">
   <path d="m104.11 139.4c4.3 9.52-20.838 40.44-25.064 35.31-4.227-5.14-4.738-36.09 2.391-41.78 6.706-5.36 18.155-3.54 22.673 6.47z" stroke="#000" stroke-linejoin="round" stroke-width="4"/>
   <path d="m104.11 139.39c4.29 9.52-20.854 40.47-25.08 35.33-0.408-0.49-0.76-1.23-1.094-2.15 5.75 1.78 25.984-29.17 21.012-37.89-0.68-1.2-1.475-2.26-2.322-3.18 3.068 1.5 5.764 4.1 7.484 7.89z" fill-opacity=".3137"/>
  </g>
  <g transform="rotate(180 280.26 207.4) matrix(.70595 0 0 .70595 215.77 98.881)" label="Layer 1">
   <path d="m104.11 139.4c4.3 9.52-20.838 40.44-25.064 35.31-4.227-5.14-4.738-36.09 2.391-41.78 6.706-5.36 18.155-3.54 22.673 6.47z" stroke="#000" stroke-linejoin="round" stroke-width="4"/>
   <path d="m104.11 139.39c4.29 9.52-20.854 40.47-25.08 35.33-0.408-0.49-0.76-1.23-1.094-2.15 5.75 1.78 25.984-29.17 21.012-37.89-0.68-1.2-1.475-2.26-2.322-3.18 3.068 1.5 5.764 4.1 7.484 7.89z" fill-opacity=".3137"/>
  </g>
  <g transform="rotate(180 255.25 188.37) matrix(.75742 0 0 .75742 186.05 71.945)" label="Layer 1">
   <path d="m104.11 139.4c4.3 9.52-20.838 40.44-25.064 35.31-4.227-5.14-4.738-36.09 2.391-41.78 6.706-5.36 18.155-3.54 22.673 6.47z" stroke="#000" stroke-linejoin="round" stroke-width="4"/>
   <path d="m104.11 139.39c4.29 9.52-20.854 40.47-25.08 35.33-0.408-0.49-0.76-1.23-1.094-2.15 5.75 1.78 25.984-29.17 21.012-37.89-0.68-1.2-1.475-2.26-2.322-3.18 3.068 1.5 5.764 4.1 7.484 7.89z" fill-opacity=".3137"/>
  </g>
 </g>
</svg>
