<?xml version="1.0" encoding="UTF-8"?>
<svg enable-background="new 0 0 2018.114 1783.234" version="1.1" viewBox="0 0 2018.114 1783.234" xmlns="http://www.w3.org/2000/svg">
 <path d="m1392.4 50.473c17.56-11.8 37.92-19.37 58.91-21.93 7.47-0.76 15.08-0.59 22.45 0.96 10.94 1.91 21.65 5.32 31.42 10.64 2.76 1.57 5.77 2.96 7.92 5.39 0.6 0.96 1.5 1.7 2.63 2.03 4.87 2.52 8.5 6.88 12.19 10.86 15.47 19.31 23.27 43.99 24.64 68.49-0.25 4.52-0.27 9.05-0.03 13.58-1.34 22.28-6.15 44.22-11.26 65.91-4.63 20.04-11.45 39.45-18.02 58.91-7.36 20.35-15.99 40.23-25.31 59.76-3.93 9.1-8.59 17.85-13.38 26.52-5.06 10.11-10.86 19.81-16.35 29.68-1.24 1.98-1.06 4.49-2.18 6.49-0.92 1.13-0.65 1.67 0.83 1.62 6.55 3.71 14.05 5.09 20.84 8.28 24.23 10.73 46.02 26.53 64.77 45.18 13.58 14.65 26.49 30.1 36.63 47.37 12.38 20.23 20.75 43.15 22.26 66.94l0.14 0.74c16.94-0.28 33.9 0.07 50.86-0.19 4.84 0.33 9.69 0.48 14.54 0.79 4.47 0.44 8.96 0.35 13.45 0.21 7.81 0.9 15.68 0.11 23.51 0.77 12.14 0.65 24.38 0.7 36.52-0.01 6.59-0.38 13.22-0.33 19.81-0.56 2.24 0.54 4.55 0.41 6.78-0.25 4.02-0.58 8.14-0.93 12.23-0.76 2.23 0.52 4.55 0.43 6.78-0.23 4.2-0.65 8.51-0.75 12.78-0.81 10.55 0.27 21.12 0.01 31.68-0.04 21.19 0.71 42.28 4.8 62.26 11.88 4.49 1.84 9.69 3.06 12.93 6.96 0.24 1.7 0.69 3.98-0.82 5.24-14.34 11.37-32.7 15.87-50.59 17.57-3.48-0.03-4.67 3.63-5.5 6.36-5.29 18.21-12.83 36.17-25.22 50.76-6.27 8.07-14.52 14.24-22.53 20.45-2.97 2.11-4.21 5.6-5.05 8.99-2.19 8.32-5.69 16.3-10.55 23.42-8.02 12.52-20.21 21.67-32.85 29.14-8.48 5.35-17.78 9.17-26.99 13.03-5.36 2.18-6.33 8.5-9.1 12.93-6.41 11.83-16.55 21.09-27.89 28.1-5.17 3.99-11.78 5.85-16.33 10.64-12.21 14.76-25.95 28.72-42.65 38.38-18.56 11.16-39.72 18.3-61.44 19.13-23.5-1-46.34-7.09-69.6-10.07-14.38-1.39-28.93-2.49-43.33-0.72-24.34 0.76-48.37 5.76-71.73 12.43-37.64 11.48-73.75 27.75-107.84 47.36-1.49 0.98-2.81 2.19-4.07 3.44l-0.36 0.35 0.12 0.47c0.58 4.34 4.55 6.73 7.59 9.35 14.71 12.01 29.71 23.67 44.65 35.4 23.12 18.54 45.74 37.74 69.6 55.34 6.54 4.58 12.48 10.37 20.23 12.9 23.73 7.36 47.14 15.84 71.36 21.53 18.47 4.54 37.51 6.26 56.47 6.73 8.29 1.12 16.69 0.83 24.98 2.02 20.37 2.33 41.28 6.06 59.13 16.7 9.03 5.27 16.75 12.58 23.19 20.76 3.06 3.79 4.82 9.48 9.86 11.06 24.66 2.3 49.32 4.83 73.89 8.04 4.51 0.52 9.07 1.65 13.64 1.09 4.13-3.07 5.81-8.22 8.31-12.53 12.61-23.49 24.02-47.63 37.42-70.69 9.69-16.96 20.7-33.12 32.04-49 3.25-4.03 6.47-8.37 10.9-11.16 1.07-0.41 1.96-1.18 2.54-2.19 2.28-2.78 5.81-4.62 9.35-5.14 1.74 0.01 3.51 0.02 5.31 0.03 6.15 0.87 9.49 7.21 10.59 12.77 0.99 6.02 1.6 12.12 1.89 18.22-0.03 3.68 2.45 7.5 6.02 8.62 11.03 1.16 22.12-0.43 32.94-2.57 6.38-0.79 12.83-3 19.28-1.54 6.4 1.3 13.46 2.9 17.73 8.3 4.06 4.59 5.23 11.16 3.82 17.03-2.12 11.34-6.97 22.14-7.25 33.8-0.39 3.17-0.45 6.39-0.01 9.58 0.11 4.19 1.58 8.41 5.1 10.96 7.57 5.56 17.6 6.25 25.21 11.79 4.11 2.97 8.08 6.89 9.29 12-0.01 5.17-3.93 9.37-7.69 12.49-12.38 9.5-27.91 13.03-42.58 17.34-15.16 3.89-30.36 7.99-44.67 14.41-7.84 3.09-14.96 7.63-22.32 11.67-20.06 11.15-38.6 25.05-59.67 34.34-8.67 3.89-17.98 6.07-27.28 7.81-8.59 1.67-17.46 1.44-26.05-0.09-21.63-3.27-41.8-12.11-61.99-20.08-6.39-2.29-12.9-5.3-19.84-4.85-1.58 1.08-1.91 3.07-2.28 4.82-3.32 17.92-8.18 35.54-14.23 52.73-10.27 32.33-23.36 63.96-41.09 92.95-9.47 15.05-20.5 29.39-34.33 40.69-7.54 6.33-16.42 10.97-25.63 14.34-7.66 1.99-15.73 4.5-23.66 2.5-18.09-3.19-34.18-12.74-49.17-22.9-13.44-9.43-26.19-19.78-39.01-30.01-13.92-10.67-28.75-20.35-45.04-26.99-11.26-4.52-22.71-8.93-34.76-10.76-2.5-1.08-2.3 1.7-0.89 2.85 2.54 7.2 7.07 13.42 10.33 20.3 9.23 17.81 16.96 36.38 23.74 55.25 11.29 30.51 19.38 62.26 23.37 94.57 0.86 7.42 1.81 14.85 1.69 22.34 0.03 8.14 0.12 16.29 0.03 24.45-0.32 7.07 0.57 15.05-3.95 21.07-5.35 4.13-12.09 5.94-18.16 8.77-21.28 8.58-43.67 14.15-66.33 17.6-19.21 2.71-38.55 4.38-57.84 6.41-8.87 0.98-17.79 1.39-26.64 2.37-5.37 1.89-7.67 7.77-11.13 11.85-13.18 16.06-30.36 29.59-50.58 35.35-9.83 3.33-20.26 4.88-30.63 4.36-27.47-1.92-54.1-10.03-79.4-20.56-6.22-2.46-11.97-6.29-18.76-6.99-0.13-0.03-0.39-0.1-0.53-0.13l-0.8-0.26c-0.34-1.45-3.4-1.45-2.04 0.26 0.4 0.12 1.21 0.35 1.61 0.47 0.46 6.61 4.85 11.76 7.64 17.5 10.41 20.43 20.97 40.9 28.24 62.71 3.7 11.27 7.59 22.53 9.88 34.21 0.97 5.29 3.05 11.07 0.57 16.27-2.29 0.65-4.79 0.27-6.64-1.25-5.1-3.76-10.29-8.06-16.78-8.98-6.81-0.62-14.05-0.79-20.25 2.55-15.79 7.71-26.87 21.99-41.48 31.45-5.47 3.78-11.72 6.57-18.3 7.66-6.76 0.32-12.75-3.99-17.24-8.63-9.01-9.91-12.4-23.62-21.58-33.39-4.7-4.94-11.03-9.07-18.08-8.89-7 0.12-14.11-0.55-20.99 1.05-7.97 1.72-15.75 4.18-23.58 6.44-6.61 2.03-14.28-1.41-17.48-7.45-2.24-4.28-3.67-9.19-2.84-14.03 1.52-9.31 4.59-18.27 7.68-27.16 11.9-36.43 33.45-68.59 55.37-99.65 15.93-22.51 29.71-46.96 49.94-66.05 11.78-12.78 29.77-20.77 47.24-17.57 21.87 3.91 41.88 14.02 61.98 23.06 4.49 2.09 8.91 4.72 13.93 5.33 1.29 0.16 1.86-0.41 1.69-1.73-0.11-5.71-3.42-10.52-5.7-15.53-3.46-7.41-8.74-13.77-14.6-19.39-11.7-12.43-26.77-20.81-40.89-30.1-9.17-6.1-18.47-12.06-26.83-19.25-5.56-5.06-11.62-9.64-16.47-15.42-3.33-4.03-6.89-7.84-10.1-11.96-4.88-6.67-12.78-9.87-19.13-14.84-8.46-6.49-17.26-12.64-24.85-20.18-7.2-6.45-14.46-12.85-21.34-19.64-7.65-6.65-14.96-13.7-21.55-21.4-12.21-12.88-24.1-26.11-34.71-40.35-20.72-27.87-37.78-58.51-49.97-91.05-8.51-22.5-15.23-45.7-19.64-69.35-1.23-6.74-3.73-13.16-5.13-19.85-0.66-2.56-1.07-5.26-2.5-7.5-1.48-1.87-4.02-2.23-6.15-2.89-21.19-5.33-41.9-12.33-62.53-19.47-38.24-13.69-73.81-33.62-111.57-48.48-2.68-1.09-5.57-1.41-8.34-2.12-1.25-0.76-2.75-0.76-3.96 0.04-9.73 1.28-19.11 4.39-28.82 5.82-14.22 2.48-28.82 3.85-43.18 1.73-20.06-2.03-40.12-7.24-57.6-17.51-7.11-4.38-13.88-9.31-20.2-14.76-2.41-1.97-4.82-4.22-7.91-5-5.78-1.04-11.67-0.12-17.5-0.24-18.79-2.05-37.38-7.81-53.47-17.87-13.06-7.76-25.15-17.4-34.76-29.23-1.73-2.09-3.62-4.08-5.82-5.67-1.9-1.56-4.47-0.76-6.64-0.45-13.14-0.37-26.15-3.57-38.49-8-27.84-10.9-51.24-31.53-67.63-56.33-1.94-3-4.09-6.35-7.83-7.19-18.1-5.15-35.9-11.37-53.14-18.91-4.5-1.86-8.85-4.24-13.66-5.2-3.18-0.73-6.45-0.38-9.64 0.02-7.55 0.65-15.15 0.1-22.73 0.31-14.82-0.86-29.56-3.62-43.62-8.42-13.69-5.19-26.49-12.79-37.36-22.63-3.48-3.24-7.94-6.14-9.36-10.92 0.77-1.61 2.92-1.6 4.45-1.9 23.51-1.07 46.49-6.98 68.8-14.17 25.65-9.01 50.43-20.27 74.68-32.5 45.31-23.71 89.79-49.05 136.11-70.76 34.6-15.73 71.13-28.51 109.24-31.65 5.07-0.09 10.13-1.09 15.2-0.43 32.39 1.69 63.84 11.98 92.54 26.72 38.54 20.07 72.34 47.75 105.77 75.2 31.45 26.31 64.17 51.05 95.57 77.44 13.65 11.64 27.28 23.32 40.7 35.23 5.22 4.63 9.87 10.15 16.32 13.13 0.84 1.21 1.44 1.11 1.8-0.3 0.83 0.02 2.49 0.05 3.33 0.07l-0.66 0.54c-0.71 0.52-1.39 1.07-2.04 1.65 11.87 11.83 24.3 23.17 35.71 35.49 13.99 14.4 27.28 29.47 40.1 44.91 1.66 2 3.31 4.02 4.62 6.29-0.46 0.16-1.39 0.47-1.85 0.63-5.97-3.73-10.96-8.86-16.53-13.15-60.44-50.39-116.16-106.17-177.36-155.67-34.45-26.74-66.6-56.36-101.76-82.19-21.46-15.71-44.19-29.98-68.84-40.17-20.15-8.27-41.67-13.51-63.49-14.14-37.12-0.91-73.86 7.96-108.23 21.5-37.42 14.58-72.55 34.2-107.91 53.07-27.86 15.03-56.21 29.19-85.27 41.75-28.31 12.12-57.92 21.87-88.62 25.46 12.42 11.25 28.41 18.44 44.95 20.98 14.16 2.7 28.62 2.54 42.95 2.16 31.8-2.23 63.16-9.07 93.46-18.85 30.81-9.86 60.8-22.09 90.74-34.3 32.21-13.34 64.91-27.23 99.89-31.1 35.33-3.56 70.9 4.17 103.57 17.38 26 10.39 50.58 23.98 74.34 38.71 13.81 8.69 27.63 17.42 40.65 27.28 17.33 12.87 33.77 26.87 50.21 40.85 25.03 21.08 51.41 41.84 68.89 70.03 0.93 1.57 1.72 3.23 2.46 4.93-4.61-4.55-8.09-10.07-12.54-14.75-22.38-24.88-49.39-44.97-76.4-64.48-12.93-10.93-26.81-20.7-40.5-30.65-15.69-11.29-31.96-21.78-48.91-31.07-24.95-13.72-50.05-27.49-76.95-37.07-20.71-7.33-42.69-11.73-64.73-10.72-32.29 1.35-63.4 11.48-93.09 23.63-52.48 21.48-103.81 46.99-159.42 59.59-5.81 1.52-11.78 2.26-17.63 3.61 3.72 2.17 7.92 3.3 11.93 4.81 6.88 2.37 13.74 4.86 20.8 6.68 17.63 5.35 35.85 8.75 54.23 10.02 16.72 1.43 33.52-0.34 50.05-2.81 40.13-6.17 79.65-20.2 112.45-44.53 4.71-3.3 8.76-7.46 13.58-10.62-6.43 8.27-15.12 14.38-23.02 21.14-23.9 17.6-50.67 31.35-79.11 39.93-22.58 6.91-46.21 10.78-69.85 10.32-7.43-0.19-14.8-1.45-22.23-1.46 6.86 8.65 15.33 15.96 23.93 22.83 14.15 11.26 30.43 20.18 48.05 24.56 15.17 3.94 31.06 3.12 46.47 1.27 32.28-3.73 63.3-15.92 90.26-33.93 9.22-5.91 17.45-13.16 26.29-19.58-1.86 2.41-3.92 4.66-5.94 6.94-21.82 20-45.79 38.19-73.12 49.98-12.99 5.88-26.79 9.64-40.74 12.38 4.88 6.46 11.23 11.74 17.59 16.72 5.8 4.66 12.41 8.13 19.06 11.4 11.79 5.68 24.31 10.02 37.3 11.86 18.78 2.89 37.9-0.27 56.05-5.2 27.2-8.01 51.96-23.13 72.83-42.16 5.26-4.73 9.87-10.12 15.19-14.77-0.03 0.42-0.08 1.27-0.11 1.7-10.3 11.73-20.79 23.38-32.91 33.29-20.37 17.14-44.21 30.35-70 37.19 7.06 6.48 15.76 11.02 24.44 14.98 16.94 8 35.87 11.51 54.56 11.2 23.42 0.07 47.07-1.6 69.78-7.64 16.38-4.36 31.36-12.56 45.88-21.12 10.12-5.63 19.74-12.36 30.59-16.55-1.06 1.28-2.19 2.5-3.32 3.72-6.41 3.38-11.97 8.08-17.76 12.38-15.13 11.61-30.35 23.7-48.23 30.82-1 0.45-1.93 1.02-2.83 1.65 6.8 2.65 13.71 5.04 20.52 7.69 20.61 8.68 41.04 17.81 61.79 26.15 35.36 14.11 72.34 23.51 109.18 32.84 15.37 4.01 31.97 7.05 44.38 17.7 6.18 5.07 9.49 12.52 12.32 19.79-0.15 1.35-0.34 2.7-0.58 4.06-2.6 0.01-4.12-2.24-5.74-3.9-9.57-10.64-23.23-16.46-36.76-20.24-6.41-1.75-12.85-3.48-19.42-4.42 0.58 10.93 7.15 20.07 13.06 28.81 8.93 12.71 20.71 24.52 35.98 29.02 13.85 4.12 28.91 0.17 40.79-7.5 12.93-8.24 21.82-21.52 27.54-35.51 6.96-16.9 10.15-35.11 11.37-53.27 1.78-39.22-9.82-78.31-29.42-112.05-9.84-16.87-21.82-32.52-35.7-46.27-10.42-10.14-21.6-19.74-34.31-26.89-4.1-2.37-7.95-6.45-12.9-6.45-9.12 2.59-18.04 5.92-26.99 9.06-0.35-0.29-1.04-0.86-1.38-1.15 2.26-2.44 5.6-3.36 8.41-4.98 45.71-24.57 95.52-40.21 145.56-53.23 3.78-1.03 8.45-1.86 10.1-5.97 8.66-19.26 14.28-39.69 20.06-59.96 7.1-27.26 15.21-54.25 22.71-81.4 0.98-3.18 1.17-6.51 1.49-9.8 1.37-0.41 1.45-1.02 0.24-1.84-4.06-6.59-10.8-10.81-16.23-16.17-14.58-14.45-29.54-28.7-41.51-45.47-9.63-12.37-17.92-25.7-25.63-39.33-15.27-28.57-27.69-58.54-40.99-88.04-0.87-1.52-2.02-2.84-2.99-4.27-0.79-1.27-1.41-1.21-1.84 0.17-5.49 0.06-10.81 1.34-16.16 2.32-19.44 3.47-39.86-1.36-56.5-11.74-12.11-7.98-22.26-18.79-29.95-31.05-6.79-11.02-11.21-23.35-14.13-35.91-0.7-3.23-1.45-6.48-1.37-9.79 0.89-0.32 1.78-0.62 2.69-0.92 3.77 2.26 6.73 5.6 10.32 8.13 8.8 6.59 18.75 12.48 29.81 13.98 8.36 0.04 17.38 1.33 25.01-2.97 10.12-4.73 17.17-13.86 22.8-23.2 9.02-14.98 13.48-32.33 14.58-49.69 1.37-9.31 0.19-18.74 0.84-28.08 1.69-14.7 4.51-29.34 9.5-43.3 9.63-27.37 26.06-52.04 45.82-73.13 3.52-4.8 8.07-8.65 12.14-12.95 7.88-6.39 14.84-13.86 23.04-19.9 18.66-15.23 39.29-28.2 61.64-37.29 31.18-12.87 64.65-20.23 98.34-21.75 5.14 0.52 10.31 0.55 15.47 0.26 22.47 0.05 44.65 4.89 66.22 10.89 15.79 4.7 31.18 10.75 46.04 17.87 18.84 9.77 36.94 21.13 53.39 34.59 1.89 1.39 3.96 2.55 5.87 3.93 0.87 0.85 1.69 0.83 2.45-0.05 4.97-4.72 7.41-11.26 11.05-16.93 11.13-18.42 23.17-36.42 37.53-52.5 10.49-11.23 21.69-21.97 34.61-30.4m5.53 4.55c-25.46 16.36-45.26 39.96-62.33 64.62-22.22 32.8-39.27 68.66-57.05 103.95-3.05 6.66-7.29 12.79-9.6 19.76-1.4 1.24-2.3 2.89-3.11 4.53-22.66 43.7-52.34 84.1-89.51 116.55-25.95 22.67-55.73 41.36-88.39 52.65-1.4 0.37-2.6 1.18-2.73 2.73 4.23 0.37 8.55 0.17 12.7-0.82 9.18-2.18 18.4-4.35 27.22-7.76 31.38-11.41 59.39-30.65 83.72-53.3 27.65-25.72 50.97-55.71 72.03-86.95 20.28-30.46 36.75-63.29 57.61-93.38 17.16-24.97 37.69-48.71 64.56-63.51 16.99-9.23 36.59-15.2 56.05-12.65 9.22 1.39 18.23 5.25 24.88 11.91 7.72 7.7 12.67 17.76 15.93 28.06 5.49 17.46 5.55 36.01 4.67 54.13-1.43 18.96-4.64 37.81-10.12 56.04-11.72 40.48-32.25 77.74-54.97 113-3.95 6.51-8.81 12.49-12.29 19.27 5.33 0.12 10.68-0.13 16 0.55 3.81 0.32 7.55 1.39 11.4 1.41 14.12-29.52 28.1-59.13 40.75-89.32 16.34-39.19 30.65-79.47 38.89-121.21 1.13-6.61 3.01-13.16 3.08-19.89 0.15-0.35 0.46-1.04 0.61-1.38 2.81-21.98 3.45-44.87-3.39-66.21-4.41-13.9-13.08-26.59-25.18-34.86-16.2-10.79-35.71-16.77-55.21-16.13-20 0.56-39.43 7.54-56.22 18.21m-358.72 56.21c-49.45 16.43-94.22 47.96-124.36 90.7-10.84 15.32-20.75 31.61-26.44 49.61-4.88 14.68-6.15 30.23-6.99 45.58-0.67 17.26-2.41 34.6-7 51.3-4.68 16.57-13.2 32.39-26.24 43.85-8.57 7.49-19.46 12.91-31.04 12.91-11.86-0.07-23.24-4.68-33.25-10.75-3.84-2.24-7.07-5.4-11.02-7.44 2.51 8.75 7.12 16.8 12.04 24.42 9.36 13.94 22.54 25.87 38.62 31.34 10.36 3.88 21.6 4.14 32.53 3.75 10.97-0.42 21.75-2.93 32.17-6.28 23.26-7.73 44.36-20.63 64.53-34.35 3.49-2.27 6.68-5.08 10.57-6.68-0.2 1.09-0.64 2.06-1.33 2.91-10.23 11.17-20.72 22.14-31.89 32.36-4.44 3.1-8.44 6.79-13 9.72-8.23 5.78-17.43 9.93-26.88 13.26 2.17 6.2 6.26 11.54 9.33 17.33 17.27 29.34 33.8 59.14 52.16 87.83 3.85 5.52 7.02 11.6 11.64 16.54 1.77 3.93 4.67 7.19 7.11 10.71 26.2 35.31 56.51 67.45 89.33 96.66 1.93 1.83 4.45 3.3 5.43 5.92-1.14-0.16-2.19-0.54-3.13-1.14-15.45-10.19-30.14-21.47-44.98-32.48-1.96 5.39-2.17 11.25-3.57 16.81-6.41 30.51-12.97 61-20.8 91.19-5.93 21.9-13.75 43.27-22.92 64.01-0.68 1.57 0.77 2.96 1.36 4.33 11.06 18.54 23.52 36.77 40.01 50.9 3.67 4.4 8.44 7.68 12.92 11.2 9.66 7.04 19.89 13.44 30.97 18.01 6.38 2.52 13.06 4.68 19.99 4.69 9.83 0.48 19.58-4.52 25.38-12.39 5.84-7.57 8.22-17.16 9.39-26.48 1.08-7.17 1.07-14.44 0.8-21.66-1.76-27.78-7.53-55.33-6.36-83.27 1.52-21.88 5.2-43.65 10.92-64.83 4.72-17.25 11.67-33.77 18.63-50.2-6.72 3.18-12.58 7.88-18.73 12.01-4.5 3.54-9.54 6.57-13.49 10.7-3.01 1.84-5.28 4.61-8.26 6.48 1.54-3.25 4.31-5.6 6.72-8.16 34.25-35.14 76.84-61.22 121.9-80.13 20.1-8.66 40.88-15.59 61.45-22.98 10.88-2.91 21.57-6.56 32.54-9.18-3.18-2.77-6.87-4.84-10.25-7.31-18.06-12.58-35.9-25.46-54-37.98-32.12-22.13-65.07-43.64-101.17-58.76-16.39-6.51-33.2-12.47-50.62-15.43-3.92-1.49-8.13-1.87-12.21-2.69-3.72-0.56-7.45-1.57-11.23-1.25-4.23 6.92-9.58 13.14-16 18.11-4.76 3.33-9.48 7.2-15.22 8.64 7.62-7.05 14.77-14.71 20.11-23.68 11.31-18.34 17.07-39.83 17.72-61.28 0.21-5.28-0.87-10.5-0.67-15.77 0.3 0.02 0.91 0.05 1.21 0.07 2 13.7 3.45 27.54 2.59 41.4 49.18-19.68 90.84-54.76 124.16-95.43 22.31-27.21 41.47-56.94 57.9-88.02 1.81-11.6 0.2-24.58-7.46-33.95-10.52-13.18-29.2-19.3-45.33-13.98-17.89 6.1-32.59 23.23-32.47 42.65-0.59 11.98 5.17 23.34 13.26 31.86 4.1 4.84 9.33 8.52 13.72 13.07-9.49-3.53-17.95-9.62-24.95-16.87-6.73-7.35-11.55-16.92-11.39-27.06 0.32-19.41 11.14-38.77 28.41-48.03 13.14-6.71 29.06-8.95 43.2-4.12 10.86 3.59 19.52 12.36 24.58 22.44 3.75 7.31 4.02 15.65 3.59 23.68 7.56-12.67 13.18-26.41 20.14-39.42 3.36-6.84 7.07-13.53 10.26-20.45-4.15-3.87-9-6.89-13.55-10.23-31.87-22.33-67.57-39.65-105.6-48.38-22.79-5.17-46.34-6.85-69.65-5.27-25.78 1.53-51.39 6.47-75.84 14.81m383.87 3.76c-25.39 8.54-45.8 27.25-62.34 47.76-36.76 46.82-63.55 100.4-98.86 148.24-9.26 12.8-19.56 24.81-30 36.64-5.8 5.63-11.25 11.63-17.35 16.94-27.87 26.02-61.15 47.34-98.33 56.94 2.82 1.98 6.74 1.57 10.02 2.46 10.08 1.47 19.75 4.91 29.65 6.98 5.7 2.85 12.09 3.93 17.86 6.65 2.27 0.83 4.49 2.38 7.01 2.24 8.71-9.13 18.42-17.72 30.05-22.94 8.67-4.08 18.18-5.75 27.55-7.4 34.24-5.7 69.46-0.65 102.14 10.37 2.71 0.83 5.43 2 8.33 2 4.31-4.03 8.59-8.19 12.38-12.73 2.84-1.7 5.13-4.14 7.79-6.09 13.11-10.01 29.28-14.88 45.34-17.62 1.43-0.35 3.31-0.44 3.96-2.05 23.8-44.05 46.57-88.97 62.39-136.6 7.39-23.11 13.15-47.16 12.57-71.58 0.2-13-2.04-26.1-6.93-38.16-4.71-11.38-13.88-21.66-26.08-24.92-12.33-3.22-25.19-0.63-37.15 2.87m3.02 280.48c1.96 0.75 4.01 1.2 6.09 1.59 32.95 6.94 64.36 22 89.54 44.49 13.02 11.37 25.03 24.07 34.49 38.6 8.76 13.27 15.12 28.44 16.48 44.4 1.95 20.39-4.56 41.63-18.31 56.92-9.47 10.71-22.29 18.04-35.87 22.19-22.2 7.64-46.44 7.42-69.18 2.36-20.05-4.33-39.1-12.35-57.26-21.76-29.07-15.26-55.81-34.44-82.4-53.58-33.42-24.03-66.98-48.13-103.21-67.83-34.16-18.73-71.23-32.96-110.04-37.92-3.9-0.26-8.05-1.54-11.84-0.38-1.19 4.95-2.68 9.82-4.25 14.66 22.5 0.98 45.13 4.29 66.22 12.51 42.05 16.9 80.07 42.07 117.02 67.97 33.08 23.07 65.48 47.25 100.23 67.8 30.29 17.93 62.54 33.32 97.07 40.96 21.35 4.69 43.61 6.27 65.26 2.69 17.56-3.06 35.09-9.35 48.68-21.21 12.18-10.41 20.36-25.3 22.84-41.11 3.22-17.9-0.39-36.37-7.12-53.04-7.31-17.51-17.8-33.56-29.99-48.05-21.05-24.86-45.81-47.63-75.82-61.1-18.28-8.39-38.57-12.02-58.63-11.16m-45.54 15.2c-7.59 2.25-13.7 7.5-20.29 11.66-1.05 1-3.34 1.58-2.78 3.4 5.63 2 11.16 4.26 16.67 6.6 16.59 7.28 32.44 16.65 45.65 29.15 15.26 13.95 27.8 30.51 39.73 47.31 3.9 5.92 8.73 11.26 11.91 17.63-4.48-3.43-7.22-8.5-11-12.59-13.57-16.63-27.55-33.26-44.74-46.3-1.77-1.26-3.29-3.01-5.41-3.62-3.78-3.34-8.25-5.74-12.51-8.39-16.46-9.6-34.14-17.04-52.34-22.63-21.19-6.8-43.04-11.87-65.26-13.61-23.25-1.82-47.41 0.84-68.46 11.42-4.69 2.67-9.96 4.68-13.81 8.56-3.03 0.89-5.85 2.83-7.58 5.49 5.91 2.77 11.84 5.49 17.59 8.6 5.75 2.84 11.08 6.55 17.06 8.93 4.34 3.86 9.79 6.17 14.53 9.5 42.67 27.46 80.94 61.21 124.18 87.85 29.21 17.91 61.06 32.98 95.37 37.42 19.15 2.5 39.07 1.94 57.48-4.36 14.66-4.99 28.04-14.66 35.94-28.15 11.08-17.57 11.75-40.89 2.71-59.41-0.11-1.4-0.7-2.67-1.21-3.92-7.37-15.62-18.02-29.51-30.29-41.6-4.78-4.17-9.05-9.08-14.51-12.36-4.73-4.75-10.5-8.28-15.92-12.16-17.28-11.49-36.28-20.72-56.53-25.55-18.39-4.37-38.1-4.93-56.18 1.13m421.49 157.07c-38.41 2.23-76.92 3.68-115.38 1.97-25.43-0.49-50.91-1.7-76.31-0.07-1.44 4.92-2.06 10.07-3.97 14.86-2.22 6.93-5.99 13.18-9.21 19.66 6.37-0.77 12.67-2.06 19.06-2.73 49.11-6.64 98.85-4.79 148.1-9.74 22.23-1.71 44.45-4.25 66.78-3.88 15.15 0.09 30.4 0.21 45.42-2.2 7.39-1.37 14.82-3.12 21.56-6.57-0.63-1.12-2.09-1.21-3.11-1.68-29.87-9.8-61.75-11.69-92.94-9.62m-474.62 11.48c-2.49-0.15-4.97 0.16-7.33 0.9-27.19 8.71-53.74 19.25-80.29 29.71-17.63 7.46-35.57 14.18-53.02 22.06-10.56 4.53-20.62 10.09-30.94 15.1-3.81 1.9-8.19 3.77-10.02 7.92-3.1 6.82-5.27 14.03-8.01 21-9.45 28.91-17.17 58.69-18.88 89.18-1.11 5.63-0.21 11.43-0.59 17.13 0.24 1.6-0.63 3.84 0.77 5.04 5.74-0.12 11.56 0.28 17.25-0.84 1.11 1.69 5.41 1.48 6.44-0.25 4.4 0.35 8.8-0.14 13.19-0.6 3.68 0.52 7.42 0.23 11.14 0.21 9-0.21 18.02 0.35 27-0.18 18.54 1.13 37.14 2.83 55.23 7.25 4.6 1.05 9.19 2.7 13.99 2.34-0.63 1.78 3.09 1.78 2.47-0.01 3.3 0.32 6.56-0.5 9.66-1.59 23.78-8.02 46-20.62 65.16-36.84 7.67-5.94 14.24-13.1 21.12-19.9 25.51-28.11 45.12-60.79 68.29-90.73 2.68-3.54 6.33-7.03 6.58-11.72-2.31-2.59-5.66-3.82-8.8-5.01-32.3-11.97-62.35-29.13-91.26-47.71-2.04-1.21-4.2-2.66-6.67-2.46 0.56-1.81-3.18-1.81-2.48 0m469.46 21.5c-26.59 1.66-53.2 3.14-79.83 3.85-43.15 1.75-86.49 4.15-128.9 12.74-2.03 0.28-3.55 1.66-4.93 3.02-5.49 5.33-11.8 9.78-18.47 13.49-11.88 6.49-25.28 9.48-38.57 11.35-3.61 0.36-5.71 3.66-8.28 5.81-29.05 27.17-47.11 63.7-75.87 91.14-5.57 5.83-12.15 10.56-17.85 16.22-10.21 6.85-20.11 14.22-30.99 20.01-9.86 5.29-19.76 10.69-30.27 14.55 0.86-1.46 2.29-2.39 3.75-3.19 13.14-7.4 25.33-16.39 36.76-26.21 28.18-24.34 50.59-54.31 73.48-83.45 9.15-11.98 19.04-23.43 30.07-33.74-12.29-0.09-24.57-1.21-36.64-3.51-6.72-1.12-13.18-3.48-19.9-4.43-3.11 2.98-5.59 6.53-8.34 9.83-24.21 30.29-44.43 63.66-70.38 92.57-20.51 23.15-45.64 42.25-73.74 55.24-19.16 8.78-39.94 13.74-60.93 15.22-0.54 3.63 0.22 7.3 0.45 10.94 0.54 4.96 0.67 9.98 1.65 14.88 1 13.63 3.29 27.13 4.41 40.76 0.34 2.06 0.14 4.61 1.99 6.04 8.66 7.64 17.44 15.16 26.25 22.64 1.3 1.01 3.06 2.75 4.67 1.16 22.44-14.65 46.08-27.39 70.25-38.93 36.55-17.72 75.59-32 116.44-34.6 7.38-0.97 14.84-0.15 22.22-1.04 0.67 0.1 2.02 0.3 2.69 0.4 31.2-0.59 60.83 12.77 92.07 11.67 12.96-0.24 25.34-4.77 37.12-9.82 6.14-2.93 12.56-5.49 18.18-9.39 4.27-1.58 8-4.32 11.97-6.51 6.51-4.19 13.7-7.36 19.79-12.18-8.35 1.39-16.63 3.42-25.16 3.35-23.93 1.44-47.45-4.22-71.15-6.18-2.78-0.99-5.76-1.1-8.63-1.53-13.62-1.95-27.19-4.77-40.05-9.73-5.17-2.28-10.84-4-15.07-7.88 4.67 0.95 8.91 3.28 13.55 4.4 22.23 6.35 45.57 5 68.4 6.48 11.34 0.48 22.65 1.73 34.02 1.44 23.26 0.64 46.64-5.19 67.02-16.38 5.3-3.17 10.97-6.05 15.31-10.54 1.51-0.14 2.51-1.61 3.7-2.44 3.79-3.63 8.21-6.75 11.07-11.24-1.27 0.15-2.51 0.35-3.71 0.62-23.91 6.21-48.74 8.4-73.39 7.95-12.8 0.4-25.48-1.88-38.22-2.34-1.8-0.68-3.7-1.03-5.55-1.37-21.81-3.4-43.23-9.21-63.85-17.07-2.57-0.98-5.29-1.76-7.43-3.54 10.6 2.54 20.92 6.26 31.64 8.39 32.55 7.4 66.2 9.78 99.48 7.4 22.77-1.66 45.53-5.76 66.92-13.87 14.05-5.66 28.14-12.3 39.44-22.53l0.59 0.01c12.07-9.64 22.44-21.43 30.77-34.44-4.16 1.66-8.09 3.81-12.21 5.53-13.86 5.81-28.52 9.52-43.34 11.84-26.16 4.46-52.7 6.93-79.24 6.62-13.1 0.25-26.15-1.18-39.2-1.87-2.8-0.93-5.79-1.02-8.66-1.42-22.45-3.03-44.59-8.65-65.58-17.19-2.32-1.02-4.99-1.6-6.69-3.59 6.68 1.21 12.88 4.26 19.53 5.69 36.01 9.78 73.7 8.61 110.63 7.09 23.85-0.99 47.73-2.96 71.18-7.59 19.53-4.26 39.19-9.89 56.21-20.69 13.46-8.18 24.29-20.07 32.8-33.21 3.49-5.59 7.26-11.12 9.68-17.29 1.27-0.77 1.58-2.41 2.32-3.62 2.48-5.76 5.45-11.31 7.63-17.19-18.36-0.07-36.81-0.81-55.08 1.4m-677.84 192.38c-0.09 12.1 2.66 24.01 3.44 36.07 2.48 20.55 3.14 41.49-0.52 61.94-1.74 8.6-4.41 17.23-9.49 24.48-6.95 9.75-18.68 15.17-30.32 16.65-18.71 2.29-37.08-4.7-52.85-14.22-26.29-16.09-47.33-39.84-62.7-66.37-5.42-8.64-8.88-18.27-13.7-27.23-38.01 12.42-76.5 23.37-114.71 35.2 2.84 2.59 6.61 3.72 9.87 5.66 29.74 16.24 54.51 40.77 72.8 69.15 20.73 32.39 33.79 70.17 34.95 108.75 1.03 28.87-4.48 58.51-19.07 83.7-9.04 15.51-22.69 29.18-40.07 34.83-7.33 2.59-15.11 3.12-22.81 3.52-10.86-0.86-21.87-2.86-31.47-8.27-5.44-2.66-9.72-6.96-14.34-10.74 4.13 15.68 10.12 30.83 16.15 45.87 8.12 19.13 17.45 37.82 28.73 55.3 9.36 14.68 20.17 28.37 31.36 41.69 0.77 0.7 1.43 1.8 2.59 1.95 3.67-4.4 6.59-9.38 10.33-13.74 4.06-5.45 8.77-10.38 12.81-15.82 21.44-24.32 50.26-40.4 72.97-63.36 10.15-10.63 19.99-22.91 22.37-37.84 2.5-12.95-0.05-26.13-2.43-38.89-3.33-17.16-7.15-35.01-2.98-52.38 4.56-16.83 13.81-32.46 26.84-44.11 13.38-12.25 30.89-18.89 48.41-22.59 10.83-2.37 22-2.07 32.97-0.9 9.21 0.1 18.95 1.32 27.63-2.53 6.23-2.61 11.12-7.54 15.07-12.89 8.08-10.89 12.36-24.31 21.84-34.21 4.14-4.6 9.64-7.96 15.73-9.21 8.36-2.22 17.39 0.18 24.46 4.91 8.29 5.53 14.67 13.29 21.97 19.97 5.08 4.72 10.4 9.7 17.18 11.81 5.56 3 12.59 2.47 18.47 0.44 10.43-3.61 20.18-8.97 29.61-14.66-2.92-3.39-6.79-5.77-10.07-8.76-28.81-23.64-57-48.28-82.41-75.55-2.15-8.62-2.05-17.69-2.57-26.53-0.78-12.59 0.11-25.18 0.49-37.76 0.14-5.54 1.53-11.01 1.04-16.57 0-0.51 0.02-1.54 0.02-2.06-21.75-2.29-43.66-3.11-65.52-3.9-14.03 0.06-28.05-1.01-42.07-0.8m117.01 5.55c-0.03 0.64-0.1 1.91-0.13 2.55 3.18-0.04 6.68 0.01 9.47-1.77-3.1-0.46-6.22-0.77-9.34-0.78m-37.6 160.92c-11.65 12.77-17.35 30.02-30.2 41.79-7.12 6.76-17.45 7.5-26.72 8.34-18.71 1.65-37.94-1.67-56.23 3.71-14.76 4.45-28.11 13.14-38.73 24.25-13.46 14.35-21.78 33.75-21.48 53.54-0.26 10.29 2.73 20.23 4.76 30.23 2.73 12.37 4.62 25.12 3.25 37.81-1.45 12.71-7.69 24.37-15.81 34.08-12.45 14.95-27.76 27.15-43.08 39.02-13.68 10.92-27.94 21.46-39.39 34.79-5 4.62-9.05 10.15-13.47 15.32-3.36 4.61-7.62 8.65-10.27 13.74 1.22 2.88 3.85 4.83 5.86 7.16 19.59 21.47 41.15 41.12 64.16 58.88 5.57 4.07 10.73 8.92 16.96 11.97 1.12-6.31 1.46-12.74 3.13-18.95 1.85-8.85 5.33-17.23 8.05-25.8 2.59-4.32 4.09-9.18 6.53-13.59 10.84-22.31 26.52-41.74 42.55-60.49 22.64-26.29 48.03-50.12 74.96-71.98 28.65-23.23 59.2-44.02 90.39-63.68 34.69-21.63 70.86-41.16 109.06-55.86 7.78-3.24 15.96-5.39 23.73-8.62 15.1-4.02 30.18-8.43 45.65-11 8.3-1.69 16.78-2.35 25.07-4.09-3.02-2.91-7.23-4.1-10.71-6.33-26.42-14.69-50.89-32.61-74.46-51.45-4.05-2.92-7.52-6.69-11.88-9.11-8.63 4.49-17.11 9.39-26.3 12.68-6.69 2.78-13.85 3.92-20.87 5.48-3.51-0.15-7.08 0.26-10.51-0.67-7.86-1.99-14.39-7.24-19.95-12.94-6.86-6.8-12.71-14.67-20.52-20.47-5.37-4.07-12.1-6.83-18.92-6.18-5.84 0.57-10.72 4.29-14.61 8.42m656.96 10.94c-6.63 3.77-11.69 9.66-16.77 15.22-15 18.96-29.7 38.31-41.6 59.43-10.41 18.22-19.37 37.22-29.4 55.66-2.42 4.84-5.71 9.24-7.71 14.29 5.95 2.27 12.11 4.2 17.41 7.88 2.16 1.64 5.51 2.9 5.62 6.07-3.27 0.75-6.62 0.29-9.9 0.07-42.56-2.77-84.81-8.78-127.06-14.35-6.27-0.93-12.57-1.54-18.84-2.41-3.17-0.34-6.34-1.09-9.52-0.71-5.2 7.29-9.69 15.09-14.28 22.78-3.06 5.77-6.77 11.23-9.09 17.36 24.73-2.13 49.95-1.18 74.04 5.15 20.65 5.97 39.9 15.73 60.08 23 16.91 6.12 35.1 10.67 53.17 7.81 13.72-1.94 25.98-8.81 38.11-15.06 29.1-15.81 55.9-36.14 87.15-47.78 18.34-7.24 38.56-8.32 56.56-16.55 2.08-1.18 4.88-2.48 5.43-5-2.4-3.3-6.94-3.76-10.42-5.39-7.81-2.63-14.74-7.1-21.27-11.99-2.12-3.52-4.97-6.64-6.22-10.62-3.96-10.76-1.88-22.7 2.41-33.03 2.39-6.39 6.26-12.95 4.81-20.01-0.83-4.24-5.11-6.52-9.03-7.11-8.67-1.37-17.27 1.19-25.89 1.72-9.51 0.69-19.71 1.01-28.4-3.48-7-3.62-10.62-11.57-10.68-19.2-0.55-7.57 1.75-15.56-1.19-22.81-1.3-3.2-5.19-2.37-7.52-0.94m-477.64 96.21c-28.4 7.56-55.69 19.05-82.05 32.01-6.29 3.2-12.75 6.26-18.48 10.4-6.6 1.76-12.01 6.24-18.11 9.16-42.2 24.53-83.69 50.59-122.17 80.69-29.53 23.19-57.35 48.82-80.8 78.23-21.03 26.86-39.83 56.64-47.69 90.22-0.7 4.4-2.39 9.02-1.24 13.45 2.63 2.3 5.52 4.41 8.71 5.89 6.61-4.83 12.23-10.91 17.98-16.7 13.83-14.33 25.18-30.81 35.58-47.72 3.47 0.2 6.08 3.05 9.41 3.9 4.98 3.11 10.68 4.81 16.04 7.16 3.78 1.72 8.06 2.38 11.54 4.76-4.68 16.94-13.62 32.33-22.78 47.18-8.72 12.86-18.05 25.3-27.39 37.69 14.67 9.61 29.85 18.52 44.03 28.89 10.07 7.5 19.63 16.41 25.06 27.94 5.87 11.79 7.26 25.1 11.58 37.44 2.11 6.61 4.98 13.16 9.77 18.3 7.12 7.82 17.22 12.18 27.39 14.43 18.73 4.2 38.11 3.89 57.16 2.64 14.33-0.84 28.67-1.77 42.94-3.2 19.95-1.48 39.87-3.7 59.65-6.7 19.46-3.47 38.65-8.59 57.09-15.72 6.58-2.66 13.46-4.74 19.67-8.21-1.75-12.9-2.72-25.91-4.08-38.86-1.76-18.7-5.33-37.18-9.74-55.43-5.34-22.31-11.94-44.35-20.54-65.64-7.42-17.91-14.9-35.84-23.74-53.11-7.12-13.45-14.72-26.88-24.6-38.49-2.47 0.93-4.66 2.45-6.92 3.77-6.89 4.1-14.3 7.18-21.56 10.56-2.02 0.85-4.1 1.89-6.35 1.69-0.18-1.48 0.61-2.6 1.7-3.45 22.07-19.53 43.64-39.65 63.7-61.24 22.69-24.68 43.33-51.64 58.11-81.86 0.52-1.14 1.29-2.13 2.37-2.78-1.86 7.85-5.56 15.11-8.41 22.62-8.36 19.98-18.35 39.39-31.19 56.87-10.62 13.9-22.26 27.01-34.72 39.28-2.38 2.46-5.37 4.36-7.26 7.26 2.99 3.93 6.69 7.24 9.81 11.08 2.17 2.42 3.83 5.31 6.32 7.45 7.07 1.59 14.23 2.84 21.21 4.87 19.89 5.07 38.38 14.53 55.5 25.7 17.08 11.03 33.03 23.72 50.02 34.9 12.49 8.14 25.29 16.3 39.49 21.11-3.95-12.16-5.77-25.09-4.35-37.83 3.75-35.64 16.76-69.36 29.19-102.69 6.79-18.31 14.41-36.32 22.98-53.87 8.81-18.37 19.14-35.96 29.3-53.6 2.78-3.4 4.67-7.41 7.24-10.96 5.62-8.57 12.43-16.49 20.98-22.25-4.12-3.37-9.71-4.33-14.6-6.2-26.03-8.4-53.73-5.48-80.46-9.4-21.9-2.83-43.44-8.03-64.53-14.56-5.63-1.93-11.59-0.41-17.34-0.09-23.68 3.01-47.46 6.33-70.42 13.02m247.34 35.35c8.32 0.74 16.7 1.27 25.07 1.14-2.38-3.82-5.51-7.38-9.46-9.58-6.18-0.44-11.9 3.82-15.61 8.44m-37.03 66.03c-2.78-0.39-3.64 2.78-4.13 4.88-2.5 3.21-3.45 7.26-5.25 10.85-10.39 23.01-18.39 46.99-27.26 70.6-9.57 25.79-19.85 52-21.33 79.76-0.5 12 1.29 24.72 8.49 34.67 6.95 1.5 14.31-0.37 20.56-3.55 8.3-3.85 14.97-10.28 21.31-16.72 3.29-3.57 7.01-6.9 9.38-11.17 6.04-7.01 10.68-15.1 15.62-22.89 19.84-32.42 34.67-67.84 44.31-104.59 3.32-13.01 7.35-25.94 9.08-39.26-4.09-0.87-8.25-1.31-12.36-1.96-19.35-2.98-38.97-1.4-58.42-0.62m-513.79 162.52c-6.67 10.32-13.67 20.46-21.68 29.81-6.42 6.97-12.81 14.01-20.1 20.11-4.71 4.48-10.33 7.9-15.03 12.34 6.34 6.68 13.51 12.56 20.93 18.02 4.54 3.05 8.66 6.87 13.66 9.17 3.37-2.63 5.43-6.56 8.08-9.85 6.47-9.29 12.72-18.81 17.82-28.91 2.97-4.62 5.42-9.55 7.98-14.39 4.1-8.4 8.66-16.64 11.78-25.46-8.16-2.85-15.7-7.09-23.44-10.84m-52 162.74c-14.75 2.66-26.57 13.16-34.94 25.09-13.52 17.49-27.19 34.87-40.15 52.79-21.25 29.7-41.18 61.23-51.44 96.59-2.03 7.97-4.77 16.02-4.34 24.36 0.05 3.41 2.32 7.03 5.86 7.65 3.92 0.35 7.99-0.29 11.58-1.94 9.98-2.43 19.78-6.36 30.2-6.44 11.46-0.7 23.16 4.55 30.22 13.63 6.65 8.1 10.67 17.9 16.28 26.69 2.53 3.94 5.3 8.41 10.07 9.86 6.51 2.15 13.21-0.94 18.84-4.08 14.32-8.42 26.15-20.31 39.78-29.7 8.25-4.14 17.58-6.87 26.88-5.75 4.46 0.44 8.51 2.5 12.71 3.93-1.03-5.57-2.51-11.05-4.03-16.49-10.85-37.03-33.51-68.84-49.37-103.68-0.95-2.22-1.98-4.63-4.37-5.57-9.51-4.7-18.53-10.37-28.15-14.8-4.52-3.88-11.06-4.97-15.01-9.43 10.6 2.39 20.64 6.78 30.83 10.5 35.82 13.81 71.02 30.5 109.15 36.97 12.34 1.94 25.1 3.67 37.5 1.35 20.05-2.06 38.52-12.68 52.44-26.96 2.43-2.73 5.67-4.92 7.13-8.37-15.67 0.51-31.45 1.02-47.04-0.97-16.4-2.02-33.85-6.25-45.95-18.25-5.18-4.84-8.03-11.41-11.77-17.27-0.82-3.84-2.28-7.53-3.91-11.07-3.7-1.86-7.8-2.74-11.59-4.37-12.62-4.76-24.67-10.85-37.18-15.87-15.83-6.26-33.08-11.65-50.23-8.4z" fill="#693A0C" stroke="#693A0C"/>
 <path d="m1397.9 55.023c16.79-10.67 36.22-17.65 56.22-18.21 19.5-0.64 39.01 5.34 55.21 16.13 12.1 8.27 20.77 20.96 25.18 34.86 6.84 21.34 6.2 44.23 3.39 66.21-0.15 0.34-0.46 1.03-0.61 1.38-3.92-17.51-11.29-34.22-21.46-48.99-8.49-11.99-18.99-22.79-31.78-30.17-15.02-9.05-33.29-12.56-50.58-9.53-17.85 3.16-34.71 10.98-49.35 21.57-25.85 18.82-45.24 44.84-62.59 71.34-15.11 23.67-29.58 47.75-44.32 71.66-2.66 4.09-4.48 8.85-8.29 12.08 2.31-6.97 6.55-13.1 9.6-19.76 17.78-35.29 34.83-71.15 57.05-103.95 17.07-24.66 36.87-48.26 62.33-64.62z" fill="#F9F6B3" stroke="#F9F6B3"/>
 <path d="m1513.1 45.533c1.1-1.37 3.63 0.59 2.63 2.03-1.13-0.33-2.03-1.07-2.63-2.03z" fill="#E0EBAD" stroke="#E0EBAD"/>
 <path d="m1433.5 66.703c17.29-3.03 35.56 0.48 50.58 9.53 12.79 7.38 23.29 18.18 31.78 30.17 10.17 14.77 17.54 31.48 21.46 48.99-0.07 6.73-1.95 13.28-3.08 19.89-8.24 41.74-22.55 82.02-38.89 121.21-12.65 30.19-26.63 59.8-40.75 89.32-3.85-0.02-7.59-1.09-11.4-1.41-5.32-0.68-10.67-0.43-16-0.55 3.48-6.78 8.34-12.76 12.29-19.27 22.72-35.26 43.25-72.52 54.97-113 5.48-18.23 8.69-37.08 10.12-56.04 0.88-18.12 0.82-36.67-4.67-54.13-3.26-10.3-8.21-20.36-15.93-28.06-6.65-6.66-15.66-10.52-24.88-11.91-19.46-2.55-39.06 3.42-56.05 12.65-26.87 14.8-47.4 38.54-64.56 63.51-20.86 30.09-37.33 62.92-57.61 93.38-21.06 31.24-44.38 61.23-72.03 86.95-24.33 22.65-52.34 41.89-83.72 53.3-8.82 3.41-18.04 5.58-27.22 7.76-4.15 0.99-8.47 1.19-12.7 0.82 0.13-1.55 1.33-2.36 2.73-2.73 32.66-11.29 62.44-29.98 88.39-52.65 37.17-32.45 66.85-72.85 89.51-116.55 0.81-1.64 1.71-3.29 3.11-4.53 3.81-3.23 5.63-7.99 8.29-12.08 14.74-23.91 29.21-47.99 44.32-71.66 17.35-26.5 36.74-52.52 62.59-71.34 14.64-10.59 31.5-18.41 49.35-21.57z" fill="#F9EE09" stroke="#F9EE09"/>
 <path d="m1119.8 82.813c4.96-1.06 10.1-0.63 15.15-0.56l0.32 0.82c-5.16 0.29-10.33 0.26-15.47-0.26z" fill="#B39C86" stroke="#B39C86"/>
 <path d="m1039.2 111.23c24.45-8.34 50.06-13.28 75.84-14.81 23.31-1.58 46.86 0.1 69.65 5.27 38.03 8.73 73.73 26.05 105.6 48.38 4.55 3.34 9.4 6.36 13.55 10.23-3.19 6.92-6.9 13.61-10.26 20.45-6.96 13.01-12.58 26.75-20.14 39.42 0.43-8.03 0.16-16.37-3.59-23.68-5.06-10.08-13.72-18.85-24.58-22.44-14.14-4.83-30.06-2.59-43.2 4.12-17.27 9.26-28.09 28.62-28.41 48.03-0.16 10.14 4.66 19.71 11.39 27.06 7 7.25 15.46 13.34 24.95 16.87-4.39-4.55-9.62-8.23-13.72-13.07-8.09-8.52-13.85-19.88-13.26-31.86-0.12-19.42 14.58-36.55 32.47-42.65 16.13-5.32 34.81 0.8 45.33 13.98 7.66 9.37 9.27 22.35 7.46 33.95-16.43 31.08-35.59 60.81-57.9 88.02-33.32 40.67-74.98 75.75-124.16 95.43 0.86-13.86-0.59-27.7-2.59-41.4-0.3-0.02-0.91-0.05-1.21-0.07-0.2 5.27 0.88 10.49 0.67 15.77-0.65 21.45-6.41 42.94-17.72 61.28-5.34 8.97-12.49 16.63-20.11 23.68 5.74-1.44 10.46-5.31 15.22-8.64 6.42-4.97 11.77-11.19 16-18.11 3.78-0.32 7.51 0.69 11.23 1.25 4.08 0.82 8.29 1.2 12.21 2.69 31.07 15.14 60.56 33.34 88.76 53.27 30.96 21.22 61.15 43.72 88.69 69.29 2.06 1.98 4.02 4.07 6.05 6.1-20.57 7.39-41.35 14.32-61.45 22.98-45.06 18.91-87.65 44.99-121.9 80.13-2.41 2.56-5.18 4.91-6.72 8.16 2.98-1.87 5.25-4.64 8.26-6.48-2.47 5.64-6.11 10.67-8.6 16.3-4.3 9.03-7.85 18.46-9.67 28.32-2.84 14.07-2.24 28.5-2.07 42.77 1.02 22.99 2.55 45.96 2.18 68.98-0.21 14.82-0.37 30.2-6.2 44.09-1.89 4.14-3.86 8.76-8.04 11.08-6.29 3.59-13.8 4.19-20.87 3.48-13.18-1.35-25.66-6.4-37.15-12.8-16.49-14.13-28.95-32.36-40.01-50.9-0.59-1.37-2.04-2.76-1.36-4.33 9.17-20.74 16.99-42.11 22.92-64.01 7.83-30.19 14.39-60.68 20.8-91.19 1.4-5.56 1.61-11.42 3.57-16.81 14.84 11.01 29.53 22.29 44.98 32.48 0.94 0.6 1.99 0.98 3.13 1.14-0.98-2.62-3.5-4.09-5.43-5.92-32.82-29.21-63.13-61.35-89.33-96.66-2.44-3.52-5.34-6.78-7.11-10.71-3.92-10.8-8.7-21.3-11.74-32.41-9.69-36.86-17.83-74.28-21.51-112.27 11.17-10.22 21.66-21.19 31.89-32.36 0.69-0.85 1.13-1.82 1.33-2.91-3.89 1.6-7.08 4.41-10.57 6.68-20.17 13.72-41.27 26.62-64.53 34.35-10.42 3.35-21.2 5.86-32.17 6.28-10.93 0.39-22.17 0.13-32.53-3.75-16.08-5.47-29.26-17.4-38.62-31.34-4.92-7.62-9.53-15.67-12.04-24.42 3.95 2.04 7.18 5.2 11.02 7.44 10.01 6.07 21.39 10.68 33.25 10.75 11.58 0 22.47-5.42 31.04-12.91 13.04-11.46 21.56-27.28 26.24-43.85 4.59-16.7 6.33-34.04 7-51.3 0.84-15.35 2.11-30.9 6.99-45.58 5.69-18 15.6-34.29 26.44-49.61 30.14-42.74 74.91-74.27 124.36-90.7m108.44 18.52c-7.03 9.84-9 22.4-8.19 34.24 0.28-0.05 0.83-0.17 1.11-0.23 0.53-2.19 0.83-4.45 1.54-6.6 6.26-6.39 11.97-13.44 19.27-18.72 5.64-4.44 12.29-7.29 18.89-9.99 2.13-0.93 4.49-1.69 5.99-3.59 5.85-0.29 10.79 2.97 15.88 5.29-1.97-4.42-6.65-6.83-10.42-9.55-14.07-9.23-34.66-4.56-44.07 9.15m-130.13 42.85c-10.15 3.91-18.33 11.69-24.62 20.39-9.81 13.79-15.75 29.96-19.31 46.4-1.98 10.48-3.49 21.12-3.27 31.81 0.86-1.08 0.78-2.54 1.02-3.82 0.87-7.52 2.21-15 4.51-22.22 1.14-1.32 2.17-2.74 3.05-4.25 6.1-10.77 13.49-20.9 22.45-29.48 3.74-3.61 7.09-7.78 11.74-10.3 7.68-4.57 16.24-7.48 25.04-8.99 6.33-1.34 12.83-0.77 19.25-1.15 2.25 1.01 4.41 2.22 6.72 3.1-0.58-2.94-2.78-5.08-4.53-7.36-4.11-5.17-8.73-10.27-14.86-13.02-8.49-3.68-18.47-4.52-27.19-1.11m204.93 29.03c-7.68 1.66-14.48 7.04-17.83 14.16-4.42 9.02-2.91 20.61 3.72 28.18 4.94 5.57 12.26 9.16 19.77 9.02 7.27 0.12 14.43-3.2 19.25-8.59 6.26-6.78 8.25-17.06 5.37-25.78-3.93-12.22-17.75-20.08-30.28-16.99m-155.69 23.22c-11.95 1.95-23.6 6.41-33.39 13.6-13.76 10.23-22.88 26-26.1 42.73-2.2 12.41-2.25 25.84 3.58 37.32 6.47 12.72 18.33 21.82 31 27.86 6.23 2.79 12.6 5.55 19.37 6.77l-0.25-0.79c4.52 1.62 9.45 0.59 14.15 0.9 11.04 0.5 21.49-4.44 30.22-10.81 5.87-3.43 9.45-9.37 13.2-14.81 4.22-6.82 7.77-14.22 9.2-22.16 1.47-1.3 1.3-3.46 1.71-5.22 2.11-14.08 2.54-29.02-2.94-42.44-4.34-11.05-13.01-19.88-22.96-26.09-10.78-6.97-24.27-8.6-36.79-6.86z" fill="#FBFDFF" stroke="#FBFDFF"/>
 <path d="m1423.1 114.99c11.96-3.5 24.82-6.09 37.15-2.87 12.2 3.26 21.37 13.54 26.08 24.92 4.89 12.06 7.13 25.16 6.93 38.16 0.58 24.42-5.18 48.47-12.57 71.58-15.82 47.63-38.59 92.55-62.39 136.6-0.65 1.61-2.53 1.7-3.96 2.05-16.06 2.74-32.23 7.61-45.34 17.62-2.66 1.95-4.95 4.39-7.79 6.09-17.11-8.87-36.24-13.01-55.19-15.72-7.6-1.22-15.32-1.2-22.98-1.83-9.65-0.92-19.29 0.53-28.92 0.86-18 1.66-36.1 4.38-53.1 10.7-10.39 3.85-19.97 9.54-28.98 15.93-5.4 3.94-11.14 7.42-16.15 11.87-9.9-2.07-19.57-5.51-29.65-6.98-3.28-0.89-7.2-0.48-10.02-2.46 37.18-9.6 70.46-30.92 98.33-56.94 6.1-5.31 11.55-11.31 17.35-16.94 7.77 1.72 15.77 2.18 23.47 4.26 20.09 4.6 38.36 15.39 58.98 17.98 9.14 0.9 18.6 0.91 27.4-2.04 34.82-10.94 65.61-33.32 88.16-61.86 11.75-14.61 20.4-31.48 27.01-48.96 5.62-15.76 9.65-32.15 11.06-48.85 0.49-5.96 1.95-11.77 3.62-17.49 1.64-7.25-0.73-14.6-2.31-21.64-5.22-18.27-14.57-36.32-30.36-47.57-4.87-2.97-10.02-6.02-15.83-6.47z" fill="#B96812" stroke="#B96812"/>
 <path d="m1360.7 162.75c16.54-20.51 36.95-39.22 62.34-47.76 5.81 0.45 10.96 3.5 15.83 6.47 15.79 11.25 25.14 29.3 30.36 47.57 1.58 7.04 3.95 14.39 2.31 21.64-1.67 5.72-3.13 11.53-3.62 17.49-1.41 16.7-5.44 33.09-11.06 48.85-6.61 17.48-15.26 34.35-27.01 48.96-22.55 28.54-53.34 50.92-88.16 61.86-8.8 2.95-18.26 2.94-27.4 2.04-20.62-2.59-38.89-13.38-58.98-17.98-7.7-2.08-15.7-2.54-23.47-4.26 10.44-11.83 20.74-23.84 30-36.64 35.31-47.84 62.1-101.42 98.86-148.24z" fill="#F39905" stroke="#F39905"/>
 <path d="m1147.6 129.75c9.41-13.71 30-18.38 44.07-9.15 3.77 2.72 8.45 5.13 10.42 9.55-5.09-2.32-10.03-5.58-15.88-5.29-8.7-0.78-17.27 2.28-24.37 7.13-8.93 6.1-16.41 14.78-19.78 25.17-0.71 2.15-1.01 4.41-1.54 6.6-0.28 0.06-0.83 0.18-1.11 0.23-0.81-11.84 1.16-24.4 8.19-34.24z" fill="#693A0C" stroke="#693A0C"/>
 <path d="m1161.9 131.99c7.1-4.85 15.67-7.91 24.37-7.13-1.5 1.9-3.86 2.66-5.99 3.59-6.6 2.7-13.25 5.55-18.89 9.99-7.3 5.28-13.01 12.33-19.27 18.72 3.37-10.39 10.85-19.07 19.78-25.17z" fill="#BCCDD2" stroke="#BCCDD2"/>
 <path d="m1552.5 140.49c-0.24-4.53-0.22-9.06 0.03-13.58 0.48 4.51 0.52 9.07-0.03 13.58z" fill="#FBD39C" stroke="#FBD39C"/>
 <path d="m1306.8 150.35c0.69-1.41 1.5-1.43 2.45-0.05-0.76 0.88-1.58 0.9-2.45 0.05z" fill="#FBFDFF" stroke="#FBFDFF"/>
 <path d="m1017.5 172.6c8.72-3.41 18.7-2.57 27.19 1.11 6.13 2.75 10.75 7.85 14.86 13.02 1.75 2.28 3.95 4.42 4.53 7.36-2.31-0.88-4.47-2.09-6.72-3.1-6.36-2.85-13.34-4.01-20.25-4.43-6.24-0.27-12.71-0.24-18.59 2.1-10.72 4.28-20.07 11.83-26.61 21.33-7.41 10.63-12.84 22.63-16.08 35.17-2.3 7.22-3.64 14.7-4.51 22.22-0.24 1.28-0.16 2.74-1.02 3.82-0.22-10.69 1.29-21.33 3.27-31.81 3.56-16.44 9.5-32.61 19.31-46.4 6.29-8.7 14.47-16.48 24.62-20.39z" fill="#693A0C" stroke="#693A0C"/>
 <path d="m1018.5 188.66c5.88-2.34 12.35-2.37 18.59-2.1 6.91 0.42 13.89 1.58 20.25 4.43-6.42 0.38-12.92-0.19-19.25 1.15-8.8 1.51-17.36 4.42-25.04 8.99-4.65 2.52-8 6.69-11.74 10.3-8.96 8.58-16.35 18.71-22.45 29.48-0.88 1.51-1.91 2.93-3.05 4.25 3.24-12.54 8.67-24.54 16.08-35.17 6.54-9.5 15.89-17.05 26.61-21.33z" fill="#BCCDD2" stroke="#BCCDD2"/>
 <path d="m1222.4 201.63c12.53-3.09 26.35 4.77 30.28 16.99 2.88 8.72 0.89 19-5.37 25.78-4.82 5.39-11.98 8.71-19.25 8.59-7.51 0.14-14.83-3.45-19.77-9.02-6.63-7.57-8.14-19.16-3.72-28.18 3.35-7.12 10.15-12.5 17.83-14.16m-10.24 6.67c-4.05 3.41-3.92 9.77-1.04 13.88l-0.65 0.31c-2.05 8.29 2.17 17.99 10.43 20.96 6.15 2.85 13.58 1.47 18.87-2.56 7.29-6.18 8.45-18.27 2.17-25.56-3.78-4.01-9.26-6.75-14.87-6.06-3.82-3.9-10.83-5.09-14.91-0.97z" fill="#33702D" stroke="#33702D"/>
 <path d="m1212.2 208.3c4.08-4.12 11.09-2.93 14.91 0.97 2.93 4.83 2.08 11.95-3.18 14.78-4.15 2.62-9.29 1.12-12.77-1.87-2.88-4.11-3.01-10.47 1.04-13.88z" fill="#fff" stroke="#fff"/>
 <path d="m1227.1 209.27c5.61-0.69 11.09 2.05 14.87 6.06 6.28 7.29 5.12 19.38-2.17 25.56-5.29 4.03-12.72 5.41-18.87 2.56-8.26-2.97-12.48-12.67-10.43-20.96l0.65-0.31c3.48 2.99 8.62 4.49 12.77 1.87 5.26-2.83 6.11-9.95 3.18-14.78z" fill="#1B2612" stroke="#1B2612"/>
 <path d="m1066.8 224.85c12.52-1.74 26.01-0.11 36.79 6.86 9.95 6.21 18.62 15.04 22.96 26.09 5.48 13.42 5.05 28.36 2.94 42.44-0.41 1.76-0.24 3.92-1.71 5.22-0.59-13.34-1.08-27.07-6.35-39.55-9.03-21.37-34.33-32.96-56.67-29.02-18.07 3.19-33.19 16.53-41.36 32.59-10.09 19.73-6.81 45.73 8.85 61.65 8.23 8.72 18.49 15.18 28.76 21.21l0.25 0.79c-6.77-1.22-13.14-3.98-19.37-6.77-12.67-6.04-24.53-15.14-31-27.86-5.83-11.48-5.78-24.91-3.58-37.32 3.22-16.73 12.34-32.5 26.1-42.73 9.79-7.19 21.44-11.65 33.39-13.6z" fill="#693A0C" stroke="#693A0C"/>
 <path d="m1064.7 236.89c22.34-3.94 47.64 7.65 56.67 29.02 5.27 12.48 5.76 26.21 6.35 39.55-1.43 7.94-4.98 15.34-9.2 22.16-3.75 5.44-7.33 11.38-13.2 14.81-8.73 6.37-19.18 11.31-30.22 10.81-4.7-0.31-9.63 0.72-14.15-0.9-10.27-6.03-20.53-12.49-28.76-21.21-15.66-15.92-18.94-41.92-8.85-61.65 8.17-16.06 23.29-29.4 41.36-32.59m2.74 24.73c-14.32 2.44-26.2 15.12-27.57 29.6-2.01 14.02 5.85 28.55 18.5 34.78 8.79 4.44 19.5 4.84 28.6 1.09 9.81-3.9 17.41-12.74 20.14-22.89 2.16-8.82 1.09-18.53-3.61-26.37-7.07-12.26-22.2-19.05-36.06-16.21z" fill="#fff" stroke="#fff"/>
 <path d="m1067.5 261.62c13.86-2.84 28.99 3.95 36.06 16.21 4.7 7.84 5.77 17.55 3.61 26.37-2.73 10.15-10.33 18.99-20.14 22.89-9.1 3.75-19.81 3.35-28.6-1.09-12.65-6.23-20.51-20.76-18.5-34.78 1.37-14.48 13.25-27.16 27.57-29.6m-14.79 9.13c-5.07 4.69-5.18 13.25-0.63 18.33-0.29 0.2-0.87 0.58-1.16 0.77-3.71 12.93 6.3 27.17 19.4 29.04 5.13 0.6 10.51-0.19 15.11-2.61 6.98-4.14 12.45-11.7 12.1-20.09 0.55-6.56-2.37-12.89-6.7-17.66-4.89-4.96-11.9-7.29-18.79-6.91-4.87-5.38-14.14-6.18-19.33-0.87z" fill="#33702D" stroke="#33702D"/>
 <path d="m1052.7 270.75c5.19-5.31 14.46-4.51 19.33 0.87 3.18 4.7 4.08 11.26 0.54 16.04-4.54 6.7-15.05 7.38-20.5 1.42-4.55-5.08-4.44-13.64 0.63-18.33z" fill="#fff" stroke="#fff"/>
 <path d="m1072 271.62c6.89-0.38 13.9 1.95 18.79 6.91 4.33 4.77 7.25 11.1 6.7 17.66 0.35 8.39-5.12 15.95-12.1 20.09-4.6 2.42-9.98 3.21-15.11 2.61-13.1-1.87-23.11-16.11-19.4-29.04 0.29-0.19 0.87-0.57 1.16-0.77 5.45 5.96 15.96 5.28 20.5-1.42 3.54-4.78 2.64-11.34-0.54-16.04z" fill="#1B2612" stroke="#1B2612"/>
 <path d="m763.23 373.88c-1.19-0.38-1.11-2.44 0.11-2.72 1.02-0.24 2.92 0.5 2.58 1.8-0.91 0.3-1.8 0.6-2.69 0.92z" enable-background="new " fill="#5B4733" opacity=".63" stroke="#5B4733"/>
 <path d="m1466.9 389.38c-1.48 0.05-1.75-0.49-0.83-1.62l0.82 0.61 0.01 1.01z" fill="#CFC1B4" stroke="#CFC1B4"/>
 <path d="m1254.1 392.45c9.63-0.33 19.27-1.78 28.92-0.86 7.66 0.63 15.38 0.61 22.98 1.83 18.95 2.71 38.08 6.85 55.19 15.72-3.79 4.54-8.07 8.7-12.38 12.73-2.9 0-5.62-1.17-8.33-2-32.68-11.02-67.9-16.07-102.14-10.37-9.37 1.65-18.88 3.32-27.55 7.4-11.63 5.22-21.34 13.81-30.05 22.94-2.52 0.14-4.74-1.41-7.01-2.24-5.77-2.72-12.16-3.8-17.86-6.65 5.01-4.45 10.75-7.93 16.15-11.87 9.01-6.39 18.59-12.08 28.98-15.93 17-6.32 35.1-9.04 53.1-10.7z" fill="#964E11" stroke="#964E11"/>
 <path d="m1426.1 395.47c20.06-0.86 40.35 2.77 58.63 11.16 30.01 13.47 54.77 36.24 75.82 61.1 12.19 14.49 22.68 30.54 29.99 48.05 6.73 16.67 10.34 35.14 7.12 53.04-2.48 15.81-10.66 30.7-22.84 41.11-13.59 11.86-31.12 18.15-48.68 21.21-21.65 3.58-43.91 2-65.26-2.69-34.53-7.64-66.78-23.03-97.07-40.96-34.75-20.55-67.15-44.73-100.23-67.8-36.95-25.9-74.97-51.07-117.02-67.97-21.09-8.22-43.72-11.53-66.22-12.51 1.57-4.84 3.06-9.71 4.25-14.66 3.79-1.16 7.94 0.12 11.84 0.38 38.81 4.96 75.88 19.19 110.04 37.92 36.23 19.7 69.79 43.8 103.21 67.83 26.59 19.14 53.33 38.32 82.4 53.58 18.16 9.41 37.21 17.43 57.26 21.76 22.74 5.06 46.98 5.28 69.18-2.36 13.58-4.15 26.4-11.48 35.87-22.19 13.75-15.29 20.26-36.53 18.31-56.92-1.36-15.96-7.72-31.13-16.48-44.4-9.46-14.53-21.47-27.23-34.49-38.6-25.18-22.49-56.59-37.55-89.54-44.49-2.08-0.39-4.13-0.84-6.09-1.59m156.04 124.61c-0.64 7.27-0.94 14.59-2.51 21.74-2.62 11.6-7.27 22.9-14.62 32.32-9.36 12.26-22.33 21.31-36.18 27.84-16.01 7.47-33.17 12.22-50.46 15.63 0.07 0.3 0.2 0.9 0.27 1.21 19.42 6.92 41.41 7.55 60.61-0.49 17.02-7.1 32.83-19.01 41.4-35.67 9.49-17.72 11.69-39.56 4.57-58.49-0.73-1.53-1.26-3.58-3.08-4.09z" fill="#F9EE09" stroke="#F9EE09"/>
 <path d="m1380.6 410.67c18.08-6.06 37.79-5.5 56.18-1.13 20.25 4.83 39.25 14.06 56.53 25.55 5.42 3.88 11.19 7.41 15.92 12.16-10.44-4.15-20.73-8.77-31.64-11.56-20.56-5.64-42.02-9.77-63.42-7.57-13.41 0.5-26.56 4.03-39.97 4.21-5.51-2.34-11.04-4.6-16.67-6.6-0.56-1.82 1.73-2.4 2.78-3.4 6.59-4.16 12.7-9.41 20.29-11.66z" fill="#FBD39C" stroke="#FBD39C"/>
 <path d="m1211.7 430.7c21.05-10.58 45.21-13.24 68.46-11.42 22.22 1.74 44.07 6.81 65.26 13.61 18.2 5.59 35.88 13.03 52.34 22.63 4.26 2.65 8.73 5.05 12.51 8.39-5.12-0.92-9.53-3.78-14.29-5.68-19.76-8.19-40.45-13.92-61.33-18.4-28.16-5.74-56.61-12.36-85.56-10.72-13.04 0.49-25.89 3.21-38.41 6.75-4.22 1.32-8.46 2.56-12.79 3.4 3.85-3.88 9.12-5.89 13.81-8.56z" fill="#FBD39C" stroke="#FBD39C"/>
 <path d="m1414.1 428.12c21.4-2.2 42.86 1.93 63.42 7.57 10.91 2.79 21.2 7.41 31.64 11.56 5.46 3.28 9.73 8.19 14.51 12.36 12.27 12.09 22.92 25.98 30.29 41.6 0.51 1.25 1.1 2.52 1.21 3.92-0.96 7.45-1.64 15.02-4.02 22.19-3.45 10.45-8.84 20.47-16.84 28.14-12.78 11.79-30 17.77-47.14 19.05-10.32 1.45-20.73 0.14-30.95-1.39-19.33-2.81-37.15-11.31-54.78-19.28-51.87-24.94-98.41-59.81-151.39-82.6-8.19-3.46-16.44-6.85-25.09-8.96-5.98-2.38-11.31-6.09-17.06-8.93-5.75-3.11-11.68-5.83-17.59-8.6 1.73-2.66 4.55-4.6 7.58-5.49 4.33-0.84 8.57-2.08 12.79-3.4 12.52-3.54 25.37-6.26 38.41-6.75 28.95-1.64 57.4 4.98 85.56 10.72 20.88 4.48 41.57 10.21 61.33 18.4 4.76 1.9 9.17 4.76 14.29 5.68 2.12 0.61 3.64 2.36 5.41 3.62 17.19 13.04 31.17 29.67 44.74 46.3 3.78 4.09 6.52 9.16 11 12.59-3.18-6.37-8.01-11.71-11.91-17.63-11.93-16.8-24.47-33.36-39.73-47.31-13.21-12.5-29.06-21.87-45.65-29.15 13.41-0.18 26.56-3.71 39.97-4.21z" fill="#F3AF49" stroke="#F3AF49"/>
 <path d="m917.1 444.18c4.56-2.93 8.56-6.62 13-9.72 3.68 37.99 11.82 75.41 21.51 112.27 3.04 11.11 7.82 21.61 11.74 32.41-4.62-4.94-7.79-11.02-11.64-16.54-18.36-28.69-34.89-58.49-52.16-87.83-3.07-5.79-7.16-11.13-9.33-17.33 9.45-3.33 18.65-7.48 26.88-13.26z" fill="#BCCDD2" stroke="#BCCDD2"/>
 <path d="m1099.9 450.38c17.42 2.96 34.23 8.92 50.62 15.43 36.1 15.12 69.05 36.63 101.17 58.76 18.1 12.52 35.94 25.4 54 37.98 3.38 2.47 7.07 4.54 10.25 7.31-10.97 2.62-21.66 6.27-32.54 9.18-2.03-2.03-3.99-4.12-6.05-6.1-27.54-25.57-57.73-48.07-88.69-69.29-28.2-19.93-57.69-38.13-88.76-53.27z" fill="#BCCDD2" stroke="#BCCDD2"/>
 <path d="m881.34 460.05c0.43-1.38 1.05-1.44 1.84-0.17-0.46 0.04-1.38 0.12-1.84 0.17z" fill="#C6B5A4" stroke="#C6B5A4"/>
 <path d="m1225 462.28c8.65 2.11 16.9 5.5 25.09 8.96 52.98 22.79 99.52 57.66 151.39 82.6 17.63 7.97 35.45 16.47 54.78 19.28 10.22 1.53 20.63 2.84 30.95 1.39 17.14-1.28 34.36-7.26 47.14-19.05 8-7.67 13.39-17.69 16.84-28.14 2.38-7.17 3.06-14.74 4.02-22.19 9.04 18.52 8.37 41.84-2.71 59.41-7.9 13.49-21.28 23.16-35.94 28.15-18.41 6.3-38.33 6.86-57.48 4.36-34.31-4.44-66.16-19.51-95.37-37.42-43.24-26.64-81.51-60.39-124.18-87.85-4.74-3.33-10.19-5.64-14.53-9.5z" fill="#E39328" stroke="#E39328"/>
 <path d="m1582.1 520.08c1.82 0.51 2.35 2.56 3.08 4.09 7.12 18.93 4.92 40.77-4.57 58.49-8.57 16.66-24.38 28.57-41.4 35.67-19.2 8.04-41.19 7.41-60.61 0.49-0.07-0.31-0.2-0.91-0.27-1.21 17.29-3.41 34.45-8.16 50.46-15.63 13.85-6.53 26.82-15.58 36.18-27.84 7.35-9.42 12-20.72 14.62-32.32 1.57-7.15 1.87-14.47 2.51-21.74z" fill="#F9F6B3" stroke="#F9F6B3"/>
 <path d="m1808.8 556.85c5.07-0.83 10.23-0.24 15.36-0.41 5.43 0.14 10.9-0.35 16.32 0.37-10.56 0.05-21.13 0.31-31.68 0.04z" fill="#FBD39C" stroke="#FBD39C"/>
 <path d="m1611.4 557.15c11.58 0.42 23.17 0.13 34.76 0.22 5.4 0.12 10.86-0.56 16.24 0.33-16.96 0.26-33.92-0.09-50.86 0.19l-0.14-0.74z" fill="#fff" stroke="#fff"/>
 <path d="m1789.2 557.89c1.68-1.57 4.9-1.55 6.78-0.23-2.23 0.66-4.55 0.75-6.78 0.23z" fill="#977656" stroke="#977656"/>
 <path d="m1676.9 558.49c4.47-0.11 9-0.55 13.45 0.21-4.49 0.14-8.98 0.23-13.45-0.21z" fill="#fff" stroke="#fff"/>
 <path d="m1770.2 558.9c1.69-1.57 4.9-1.55 6.78-0.25-2.23 0.66-4.54 0.79-6.78 0.25z" fill="#9C7D5F" stroke="#9C7D5F"/>
 <path d="m1713.9 559.47c12.16-0.35 24.35-0.42 36.52-0.01-12.14 0.71-24.38 0.66-36.52 0.01z" fill="#fff" stroke="#fff"/>
 <path d="m1802 567.74c31.19-2.07 63.07-0.18 92.94 9.62 1.02 0.47 2.48 0.56 3.11 1.68-6.74 3.45-14.17 5.2-21.56 6.57-15.02 2.41-30.27 2.29-45.42 2.2-22.33-0.37-44.55 2.17-66.78 3.88-49.25 4.95-98.99 3.1-148.1 9.74-6.39 0.67-12.69 1.96-19.06 2.73 3.22-6.48 6.99-12.73 9.21-19.66 1.91-4.79 2.53-9.94 3.97-14.86 25.4-1.63 50.88-0.42 76.31 0.07 38.46 1.71 76.97 0.26 115.38-1.97z" fill="#FBFDFF" stroke="#FBFDFF"/>
 <path d="m1327.4 579.22c-0.7-1.81 3.04-1.81 2.48 0h-2.48z" fill="#AE957C" stroke="#AE957C"/>
 <path d="m1796.9 600.72c18.27-2.21 36.72-1.47 55.08-1.4-2.18 5.88-5.15 11.43-7.63 17.19-0.74 1.21-1.05 2.85-2.32 3.62-11.92 1.06-23.9 0.97-35.83 1.74-15.34 0.68-30.71-0.01-46.03 0.93-47.27 0.52-94.8-1.68-141.79 4.75-36.79 5.47-72.01 21.39-100.05 45.87-12.92 10.75-23.58 23.81-34.81 36.22-11.46 12.88-23.77 25.15-37.99 35-7.01 4.72-13.9 9.67-21.33 13.7 5.7-5.66 12.28-10.39 17.85-16.22 28.76-27.44 46.82-63.97 75.87-91.14 2.57-2.15 4.67-5.45 8.28-5.81 13.29-1.87 26.69-4.86 38.57-11.35 6.67-3.71 12.98-8.16 18.47-13.49 1.38-1.36 2.9-2.74 4.93-3.02 42.41-8.59 85.75-10.99 128.9-12.74 26.63-0.71 53.24-2.19 79.83-3.85z" fill="#BCCDD2" stroke="#BCCDD2"/>
 <path d="m1806.2 621.87c11.93-0.77 23.91-0.68 35.83-1.74-2.42 6.17-6.19 11.7-9.68 17.29-8.51 13.14-19.34 25.03-32.8 33.21-17.02 10.8-36.68 16.43-56.21 20.69-23.45 4.63-47.33 6.6-71.18 7.59-36.93 1.52-74.62 2.69-110.63-7.09-6.65-1.43-12.85-4.48-19.53-5.69 1.7 1.99 4.37 2.57 6.69 3.59 20.99 8.54 43.13 14.16 65.58 17.19 2.87 0.4 5.86 0.49 8.66 1.42 15.16 6.93 31.26 11.79 47.74 14.34 25.95 4.22 52.45 2.87 78.41-0.52 5.48-0.56 10.92-2.19 16.48-1.51-11.3 10.23-25.39 16.87-39.44 22.53-21.39 8.11-44.15 12.21-66.92 13.87-33.28 2.38-66.93 0-99.48-7.4-10.72-2.13-21.04-5.85-31.64-8.39 2.14 1.78 4.86 2.56 7.43 3.54 20.62 7.86 42.04 13.67 63.85 17.07 1.85 0.34 3.75 0.69 5.55 1.37 7.54 3.24 15.67 4.72 23.66 6.46 18.57 3.74 37.62 4.32 56.49 3.21 6.84-0.34 13.51-2.36 20.4-2.22-4.34 4.49-10.01 7.37-15.31 10.54-20.38 11.19-43.76 17.02-67.02 16.38-11.37 0.29-22.68-0.96-34.02-1.44-22.83-1.48-46.17-0.13-68.4-6.48-4.64-1.12-8.88-3.45-13.55-4.4 4.23 3.88 9.9 5.6 15.07 7.88 12.86 4.96 26.43 7.78 40.05 9.73 2.87 0.43 5.85 0.54 8.63 1.53 21.07 8.37 42.28 16.83 64.55 21.52-5.62 3.9-12.04 6.46-18.18 9.39-11.78 5.05-24.16 9.58-37.12 9.82-31.24 1.1-60.87-12.26-92.07-11.67-0.67-0.1-2.02-0.3-2.69-0.4-17.86-8.35-37.69-11.34-57.26-11.77-24.25 0.27-48.23 4.92-71.51 11.51-19.33 5.76-38.52 12.41-58.54 15.36-14.67 2.07-29.91 1.66-44.08-2.9-5.42-1.79-10.38-4.73-14.84-8.23-0.98-4.9-1.11-9.92-1.65-14.88-0.23-3.64-0.99-7.31-0.45-10.94 20.99-1.48 41.77-6.44 60.93-15.22 28.1-12.99 53.23-32.09 73.74-55.24 25.95-28.91 46.17-62.28 70.38-92.57 2.75-3.3 5.23-6.85 8.34-9.83 6.72 0.95 13.18 3.31 19.9 4.43 12.07 2.3 24.35 3.42 36.64 3.51-11.03 10.31-20.92 21.76-30.07 33.74-22.89 29.14-45.3 59.11-73.48 83.45-11.43 9.82-23.62 18.81-36.76 26.21-1.46 0.8-2.89 1.73-3.75 3.19 10.51-3.86 20.41-9.26 30.27-14.55 10.88-5.79 20.78-13.16 30.99-20.01 7.43-4.03 14.32-8.98 21.33-13.7 14.22-9.85 26.53-22.12 37.99-35 11.23-12.41 21.89-25.47 34.81-36.22 28.04-24.48 63.26-40.4 100.05-45.87 46.99-6.43 94.52-4.23 141.79-4.75 15.32-0.94 30.69-0.25 46.03-0.93z" fill="#FBFDFF" stroke="#FBFDFF"/>
 <path d="m1010.5 653.16c1.21 0.82 1.13 1.43-0.24 1.84l0.24-1.84z" fill="#C6B5A4" stroke="#C6B5A4"/>
 <path d="m335.95 679.03c34.37-13.54 71.11-22.41 108.23-21.5 21.82 0.63 43.34 5.87 63.49 14.14 24.65 10.19 47.38 24.46 68.84 40.17 35.16 25.83 67.31 55.45 101.76 82.19 61.2 49.5 116.92 105.28 177.36 155.67 5.57 4.29 10.56 9.42 16.53 13.15 0.46-0.16 1.39-0.47 1.85-0.63-1.31-2.27-2.96-4.29-4.62-6.29-12.82-15.44-26.11-30.51-40.1-44.91-11.41-12.32-23.84-23.66-35.71-35.49 0.65-0.58 1.33-1.13 2.04-1.65 2.61-0.66 5.2-1.41 7.72-2.39 8.95-3.14 17.87-6.47 26.99-9.06 4.95 0 8.8 4.08 12.9 6.45 6.5 7.22 13.89 13.61 19.94 21.27 19.78 24.25 35.59 51.72 47.11 80.8 7.06 17.99 12.49 36.68 15.27 55.82 2.69 19.54 2.61 39.82-3 58.86-4.66 14.88-12.16 29.52-24.57 39.39-5.53 4.42-12.26 7.76-19.47 7.76 0.35-5.34 0.53-10.87-2.09-15.74-2.83-7.27-6.14-14.72-12.32-19.79-12.41-10.65-29.01-13.69-44.38-17.7-36.84-9.33-73.82-18.73-109.18-32.84-20.75-8.34-41.18-17.47-61.79-26.15 13.87-8.59 26.1-19.76 36.1-32.64 4.56-6.31 9.25-12.63 12.2-19.9 1.13-1.22 2.26-2.44 3.32-3.72-10.85 4.19-20.47 10.92-30.59 16.55-14.52 8.56-29.5 16.76-45.88 21.12-22.71 6.04-46.36 7.71-69.78 7.64-18.69 0.31-37.62-3.2-54.56-11.2 6.04-4.38 12.95-7.34 19-11.7 14.03-8.94 26.64-20.02 37.62-32.5 6.12-7.36 11.91-15.09 16.13-23.71 2.63-5.57 5.66-11.25 5.72-17.55 0.03-0.43 0.08-1.28 0.11-1.7-5.32 4.65-9.93 10.04-15.19 14.77-20.87 19.03-45.63 34.15-72.83 42.16-18.15 4.93-37.27 8.09-56.05 5.2-12.99-1.84-25.51-6.18-37.3-11.86-6.65-3.27-13.26-6.74-19.06-11.4 5.45-2.29 11.31-3.36 16.8-5.54 20.93-7.8 40.19-20.21 55.74-36.27 9.98-10.87 19.21-23.06 23.73-37.27 2.02-2.28 4.08-4.53 5.94-6.94-8.84 6.42-17.07 13.67-26.29 19.58-26.96 18.01-57.98 30.2-90.26 33.93-15.41 1.85-31.3 2.67-46.47-1.27-17.62-4.38-33.9-13.3-48.05-24.56 5.78-0.72 11.54 0.53 17.33 0.24 18.01-0.81 36.19-2.62 53.44-8.17 13.16-3.89 25.6-9.9 37.42-16.79 10.73-6.48 21.5-13.68 28.77-24.12 4.64-6.97 7.91-14.78 10.3-22.78 7.9-6.76 16.59-12.87 23.02-21.14-4.82 3.16-8.87 7.32-13.58 10.62-32.8 24.33-72.32 38.36-112.45 44.53-16.53 2.47-33.33 4.24-50.05 2.81-18.38-1.27-36.6-4.67-54.23-10.02 5.9-1.72 12.02-2.49 17.95-4.05 19.58-4.75 38.43-11.96 57.34-18.81 14.77-5.56 29.93-10.09 44.45-16.34 17.21-7.04 34-15.12 51.38-21.76 16.94-6.88 34.9-11.22 53.09-13.09 27.34-2.59 55.08-0.63 81.86 5.46 43.43 9.83 83.71 30.14 121.02 54.03 14.01 8.25 26.99 18.23 41.41 25.75 27.01 19.51 54.02 39.6 76.4 64.48 4.45 4.68 7.93 10.2 12.54 14.75-0.74-1.7-1.53-3.36-2.46-4.93-17.48-28.19-43.86-48.95-68.89-70.03-16.44-13.98-32.88-27.98-50.21-40.85-13.02-9.86-26.84-18.59-40.65-27.28-23.76-14.73-48.34-28.32-74.34-38.71-32.67-13.21-68.24-20.94-103.57-17.38-34.98 3.87-67.68 17.76-99.89 31.1-29.94 12.21-59.93 24.44-90.74 34.3-30.3 9.78-61.66 16.62-93.46 18.85-14.33 0.38-28.79 0.54-42.95-2.16-16.54-2.54-32.53-9.73-44.95-20.98 30.7-3.59 60.31-13.34 88.62-25.46 29.06-12.56 57.41-26.72 85.27-41.75 35.36-18.87 70.49-38.49 107.91-53.07z" fill="#FBFDFF" stroke="#FBFDFF"/>
 <path d="m1115.1 673.13c6.15-4.13 12.01-8.83 18.73-12.01-6.96 16.43-13.91 32.95-18.63 50.2-5.72 21.18-9.4 42.95-10.92 64.83-1.17 27.94 4.6 55.49 6.36 83.27 0.27 7.22 0.28 14.49-0.8 21.66-1.17 9.32-3.55 18.91-9.39 26.48-5.8 7.87-15.55 12.87-25.38 12.39-6.93-0.01-13.61-2.17-19.99-4.69-11.08-4.57-21.31-10.97-30.97-18.01-4.48-3.52-9.25-6.8-12.92-11.2 11.49 6.4 23.97 11.45 37.15 12.8 7.07 0.71 14.58 0.11 20.87-3.48 4.18-2.32 6.15-6.94 8.04-11.08 5.83-13.89 5.99-29.27 6.2-44.09 0.37-23.02-1.16-45.99-2.18-68.98-0.17-14.27-0.77-28.7 2.07-42.77 1.82-9.86 5.37-19.29 9.67-28.32 2.49-5.63 6.13-10.66 8.6-16.3 3.95-4.13 8.99-7.16 13.49-10.7z" fill="#BCCDD2" stroke="#BCCDD2"/>
 <path d="m1784.7 691.74c4.12-1.72 8.05-3.87 12.21-5.53-8.33 13.01-18.7 24.8-30.77 34.44l-0.59-0.01c-5.56-0.68-11 0.95-16.48 1.51-25.96 3.39-52.46 4.74-78.41 0.52-16.48-2.55-32.58-7.41-47.74-14.34 13.05 0.69 26.1 2.12 39.2 1.87 26.54 0.31 53.08-2.16 79.24-6.62 14.82-2.32 29.48-6.03 43.34-11.84z" fill="#BCCDD2" stroke="#BCCDD2"/>
 <path d="m353.14 772.27c29.69-12.15 60.8-22.28 93.09-23.63 22.04-1.01 44.02 3.39 64.73 10.72 26.9 9.58 52 23.35 76.95 37.07 16.95 9.29 33.22 19.78 48.91 31.07 13.69 9.95 27.57 19.72 40.5 30.65-14.42-7.52-27.4-17.5-41.41-25.75-37.31-23.89-77.59-44.2-121.02-54.03-26.78-6.09-54.52-8.05-81.86-5.46-18.19 1.87-36.15 6.21-53.09 13.09-17.38 6.64-34.17 14.72-51.38 21.76-14.52 6.25-29.68 10.78-44.45 16.34-18.91 6.85-37.76 14.06-57.34 18.81-5.93 1.56-12.05 2.33-17.95 4.05-7.06-1.82-13.92-4.31-20.8-6.68-4.01-1.51-8.21-2.64-11.93-4.81 5.85-1.35 11.82-2.09 17.63-3.61 55.61-12.6 106.94-38.11 159.42-59.59z" fill="#BCCDD2" stroke="#BCCDD2"/>
 <path d="m1716.5 757.62c1.2-0.27 2.44-0.47 3.71-0.62-2.86 4.49-7.28 7.61-11.07 11.24-1.19 0.83-2.19 2.3-3.7 2.44-6.89-0.14-13.56 1.88-20.4 2.22-18.87 1.11-37.92 0.53-56.49-3.21-7.99-1.74-16.12-3.22-23.66-6.46 12.74 0.46 25.42 2.74 38.22 2.34 24.65 0.45 49.48-1.74 73.39-7.95z" fill="#BCCDD2" stroke="#BCCDD2"/>
 <path d="m1118.3 782.22c0.38-5.7-0.52-11.5 0.59-17.13 0.18 7.38 0.21 14.77 0.18 22.17-1.4-1.2-0.53-3.44-0.77-5.04z" fill="#fff" stroke="#fff"/>
 <path d="m1156 785.57c6.35-0.61 12.74-0.08 19.12-0.2 6.34 0.11 12.69-0.34 19.02 0.23-8.98 0.53-18-0.03-27 0.18-3.72 0.02-7.46 0.31-11.14-0.21z" fill="#fff" stroke="#fff"/>
 <path d="m1136.4 786.42c2.1-0.43 4.28-0.42 6.44-0.25-1.03 1.73-5.33 1.94-6.44 0.25z" fill="#99795A" stroke="#99795A"/>
 <path d="m1119 793.1c14.02-0.21 28.04 0.86 42.07 0.8 21.86 0.79 43.77 1.61 65.52 3.9 0 0.52-0.02 1.55-0.02 2.06-7.85 17.56-10.19 36.91-13.1 55.75-1.37 13.51-6.2 27.19-2.54 40.75 3.23 14.84 13.36 26.75 23.29 37.71 13.29 14.46 25.66 29.74 37.79 45.18-6.78-2.11-12.1-7.09-17.18-11.81-7.3-6.68-13.68-14.44-21.97-19.97-7.07-4.73-16.1-7.13-24.46-4.91-6.09 1.25-11.59 4.61-15.73 9.21-9.48 9.9-13.76 23.32-21.84 34.21-3.95 5.35-8.84 10.28-15.07 12.89-8.68 3.85-18.42 2.63-27.63 2.53-10.97-1.17-22.14-1.47-32.97 0.9-17.52 3.7-35.03 10.34-48.41 22.59-13.03 11.65-22.28 27.28-26.84 44.11-4.17 17.37-0.35 35.22 2.98 52.38 2.38 12.76 4.93 25.94 2.43 38.89-2.38 14.93-12.22 27.21-22.37 37.84-22.71 22.96-51.53 39.04-72.97 63.36-13.71-13.77-24.78-30.01-34.38-46.85-8.42-15.89-16.67-32.08-21.78-49.39 7.7-0.4 15.48-0.93 22.81-3.52 17.38-5.65 31.03-19.32 40.07-34.83 14.59-25.19 20.1-54.83 19.07-83.7-1.16-38.58-14.22-76.36-34.95-108.75-18.29-28.38-43.06-52.91-72.8-69.15-3.26-1.94-7.03-3.07-9.87-5.66 38.21-11.83 76.7-22.78 114.71-35.2 4.82 8.96 8.28 18.59 13.7 27.23 15.37 26.53 36.41 50.28 62.7 66.37 15.77 9.52 34.14 16.51 52.85 14.22 11.64-1.48 23.37-6.9 30.32-16.65 5.08-7.25 7.75-15.88 9.49-24.48 3.66-20.45 3-41.39 0.52-61.94-0.78-12.06-3.53-23.97-3.44-36.07z" fill="#A4A1CF" stroke="#A4A1CF"/>
 <path d="m1263.4 795.19c0.62 0 1.86 0 2.47-0.01 0.62 1.79-3.1 1.79-2.47 0.01z" fill="#AD947C" stroke="#AD947C"/>
 <path d="m1236.1 798.65c3.12 0.01 6.24 0.32 9.34 0.78-2.79 1.78-6.29 1.73-9.47 1.77 0.03-0.64 0.1-1.91 0.13-2.55z" fill="#6E6AA6" stroke="#6E6AA6"/>
 <path d="m1213.5 855.61c2.91-18.84 5.25-38.19 13.1-55.75 0.49 5.56-0.9 11.03-1.04 16.57-0.38 12.58-1.27 25.17-0.49 37.76 0.52 8.84 0.42 17.91 2.57 26.53 25.41 27.27 53.6 51.91 82.41 75.55 3.28 2.99 7.15 5.37 10.07 8.76-9.43 5.69-19.18 11.05-29.61 14.66-5.88 2.03-12.91 2.56-18.47-0.44-12.13-15.44-24.5-30.72-37.79-45.18-9.93-10.96-20.06-22.87-23.29-37.71-3.66-13.56 1.17-27.24 2.54-40.75z" fill="#DBDBEE" stroke="#DBDBEE"/>
 <path d="m1570.9 804.42c23.7 1.96 47.22 7.62 71.15 6.18 8.53 0.07 16.81-1.96 25.16-3.35-6.09 4.82-13.28 7.99-19.79 12.18-3.97 2.19-7.7 4.93-11.97 6.51-22.27-4.69-43.48-13.15-64.55-21.52z" fill="#BCCDD2" stroke="#BCCDD2"/>
 <path d="m337 860.09c28.44-8.58 55.21-22.33 79.11-39.93-2.39 8-5.66 15.81-10.3 22.78-7.27 10.44-18.04 17.64-28.77 24.12-11.82 6.89-24.26 12.9-37.42 16.79-17.25 5.55-35.43 7.36-53.44 8.17-5.79 0.29-11.55-0.96-17.33-0.24-8.6-6.87-17.07-14.18-23.93-22.83 7.43 0.01 14.8 1.27 22.23 1.46 23.64 0.46 47.27-3.41 69.85-10.32z" fill="#BCCDD2" stroke="#BCCDD2"/>
 <path d="m1356.6 832.82c23.28-6.59 47.26-11.24 71.51-11.51 19.57 0.43 39.4 3.42 57.26 11.77-7.38 0.89-14.84 0.07-22.22 1.04-40.85 2.6-79.89 16.88-116.44 34.6-24.17 11.54-47.81 24.28-70.25 38.93-1.61 1.59-3.37-0.15-4.67-1.16-8.81-7.48-17.59-15-26.25-22.64-1.85-1.43-1.65-3.98-1.99-6.04-1.12-13.63-3.41-27.13-4.41-40.76 4.46 3.5 9.42 6.44 14.84 8.23 14.17 4.56 29.41 4.97 44.08 2.9 20.02-2.95 39.21-9.6 58.54-15.36z" fill="#BCCDD2" stroke="#BCCDD2"/>
 <path d="m144.84 838.92c3.19-0.4 6.46-0.75 9.64-0.02-3.2 0.42-6.44 0.35-9.64 0.02z" fill="#fff" stroke="#fff"/>
 <path d="m843.23 868.88c12.71 7.15 23.89 16.75 34.31 26.89 13.88 13.75 25.86 29.4 35.7 46.27 19.6 33.74 31.2 72.83 29.42 112.05-1.22 18.16-4.41 36.37-11.37 53.27-5.72 13.99-14.61 27.27-27.54 35.51-11.88 7.67-26.94 11.62-40.79 7.5-15.27-4.5-27.05-16.31-35.98-29.02-5.91-8.74-12.48-17.88-13.06-28.81 6.57 0.94 13.01 2.67 19.42 4.42 13.53 3.78 27.19 9.6 36.76 20.24 1.62 1.66 3.14 3.91 5.74 3.9 0.24-1.36 0.43-2.71 0.58-4.06 2.62 4.87 2.44 10.4 2.09 15.74 7.21 0 13.94-3.34 19.47-7.76 12.41-9.87 19.91-24.51 24.57-39.39 5.61-19.04 5.69-39.32 3-58.86-2.78-19.14-8.21-37.83-15.27-55.82-11.52-29.08-27.33-56.55-47.11-80.8-6.05-7.66-13.44-14.05-19.94-21.27z" fill="#BCCDD2" stroke="#BCCDD2"/>
 <path d="m796.28 873.34c1.65-1.37 3.5-2.68 5.68-3 0.34 0.29 1.03 0.86 1.38 1.15-2.52 0.98-5.11 1.73-7.72 2.39l0.66-0.54z" enable-background="new " fill="#7F664E" opacity=".82" stroke="#7F664E"/>
 <path d="m400.86 921.02c27.33-11.79 51.3-29.98 73.12-49.98-4.52 14.21-13.75 26.4-23.73 37.27-15.55 16.06-34.81 28.47-55.74 36.27-5.49 2.18-11.35 3.25-16.8 5.54-6.36-4.98-12.71-10.26-17.59-16.72 13.95-2.74 27.75-6.5 40.74-12.38z" fill="#BCCDD2" stroke="#BCCDD2"/>
 <path d="m791.15 873.57c0.45-0.08 1.35-0.22 1.8-0.3-0.36 1.41-0.96 1.51-1.8 0.3z" fill="#D9CEC3" stroke="#D9CEC3"/>
 <path d="m1281.2 912.58l0.36-0.35c-0.06 0.21-0.18 0.61-0.24 0.82l-0.12-0.47z" fill="#E1D9D1" stroke="#E1D9D1"/>
 <path d="m545.12 946.24c12.12-9.91 22.61-21.56 32.91-33.29-0.06 6.3-3.09 11.98-5.72 17.55-4.22 8.62-10.01 16.35-16.13 23.71-10.98 12.48-23.59 23.56-37.62 32.5-6.05 4.36-12.96 7.32-19 11.7-8.68-3.96-17.38-8.5-24.44-14.98 25.79-6.84 49.63-20.05 70-37.19z" fill="#BCCDD2" stroke="#BCCDD2"/>
 <path d="m335.23 934.53c2.17-0.31 4.74-1.11 6.64 0.45-1.96 0.96-4.87 0.86-6.64-0.45z" fill="#987759" stroke="#987759"/>
 <path d="m1198.5 959.57c3.89-4.13 8.77-7.85 14.61-8.42 6.82-0.65 13.55 2.11 18.92 6.18 7.81 5.8 13.66 13.67 20.52 20.47 5.56 5.7 12.09 10.95 19.95 12.94 3.43 0.93 7 0.52 10.51 0.67 20.68 25.22 46.11 46.25 73.5 63.82-7.77 3.23-15.95 5.38-23.73 8.62-38.2 14.7-74.37 34.23-109.06 55.86-31.19 19.66-61.74 40.45-90.39 63.68-26.93 21.86-52.32 45.69-74.96 71.98-16.03 18.75-31.71 38.18-42.55 60.49-2.44 4.41-3.94 9.27-6.53 13.59-15.13-11.64-30.74-22.7-45.22-35.17-6.69-5.25-12.63-11.34-19.01-16.95-3.58-3.22-6.93-6.67-10.19-10.2 11.45-13.33 25.71-23.87 39.39-34.79 15.32-11.87 30.63-24.07 43.08-39.02 8.12-9.71 14.36-21.37 15.81-34.08 1.37-12.69-0.52-25.44-3.25-37.81-2.03-10-5.02-19.94-4.76-30.23-0.3-19.79 8.02-39.19 21.48-53.54 10.62-11.11 23.97-19.8 38.73-24.25 18.29-5.38 37.52-2.06 56.23-3.71 9.27-0.84 19.6-1.58 26.72-8.34 12.85-11.77 18.55-29.02 30.2-41.79z" fill="#E2A5C9" stroke="#E2A5C9"/>
 <path d="m1856.5 963.26c0.35-1.98 4.92-1.96 5.31 0.03-1.8-0.01-3.57-0.02-5.31-0.03z" fill="#D6C900" stroke="#D6C900"/>
 <path d="m679.29 980.4c5.79-4.3 11.35-9 17.76-12.38-2.95 7.27-7.64 13.59-12.2 19.9-10 12.88-22.23 24.05-36.1 32.64-6.81-2.65-13.72-5.04-20.52-7.69 0.9-0.63 1.83-1.2 2.83-1.65 17.88-7.12 33.1-19.21 48.23-30.82z" fill="#BCCDD2" stroke="#BCCDD2"/>
 <path d="m1844.6 970.59c-1.09-1.39 1.31-3.48 2.54-2.19-0.58 1.01-1.47 1.78-2.54 2.19z" fill="#D6C900" stroke="#D6C900"/>
 <path d="m1855.4 970.51c2.33-1.43 6.22-2.26 7.52 0.94 2.94 7.25 0.64 15.24 1.19 22.81 0.06 7.63 3.68 15.58 10.68 19.2 8.69 4.49 18.89 4.17 28.4 3.48 8.62-0.53 17.22-3.09 25.89-1.72 3.92 0.59 8.2 2.87 9.03 7.11 1.45 7.06-2.42 13.62-4.81 20.01-4.29 10.33-6.37 22.27-2.41 33.03 1.25 3.98 4.1 7.1 6.22 10.62-14.84 4.12-29.31 9.57-43.32 15.92-29.93 13.95-56.78 33.37-83.72 52.24-7.46 5.18-14.95 10.72-23.82 13.2-12.9 3.89-26.69 2.54-39.56-0.69-18.72-5.03-36.29-13.36-54.03-20.98-16.99-7.32-35-12.65-53.53-13.83 1.16-6.02 3.22-12.08 6.86-17.07 42.25 5.57 84.5 11.58 127.06 14.35 3.28 0.22 6.63 0.68 9.9-0.07-0.11-3.17-3.46-4.43-5.62-6.07-5.3-3.68-11.46-5.61-17.41-7.88 2-5.05 5.29-9.45 7.71-14.29 10.03-18.44 18.99-37.44 29.4-55.66 11.9-21.12 26.6-40.47 41.6-59.43 5.08-5.56 10.14-11.45 16.77-15.22z" fill="#F9EE09" stroke="#F9EE09"/>
 <path d="m1303.8 985.93c9.19-3.29 17.67-8.19 26.3-12.68 4.36 2.42 7.83 6.19 11.88 9.11 23.57 18.84 48.04 36.76 74.46 51.45 3.48 2.23 7.69 3.42 10.71 6.33-8.29 1.74-16.77 2.4-25.07 4.09-15.47 2.57-30.55 6.98-45.65 11-27.39-17.57-52.82-38.6-73.5-63.82 7.02-1.56 14.18-2.7 20.87-5.48z" fill="#F7DFEC" stroke="#F7DFEC"/>
 <path d="m435.92 987.75c5.83 0.12 11.72-0.8 17.5 0.24-5.83 0.2-11.69 0.2-17.5-0.24z" fill="#fff" stroke="#fff"/>
 <path d="m611.13 1017.7c1.21-0.8 2.71-0.8 3.96-0.04-1.32 1.25-2.64 1.26-3.96 0.04z" fill="#D4C7BB" stroke="#D4C7BB"/>
 <path d="m1377.8 1066.7c22.96-6.69 46.74-10.01 70.42-13.02 5.75-0.32 11.71-1.84 17.34 0.09 21.09 6.53 42.63 11.73 64.53 14.56 26.73 3.92 54.43 1 80.46 9.4 4.89 1.87 10.48 2.83 14.6 6.2-8.55 5.76-15.36 13.68-20.98 22.25-2.57 3.55-4.46 7.56-7.24 10.96-45.51-3.97-91.16-8.69-135.71-19.2-22.79-5.54-45.33-12.48-66.7-22.23-5.63-2.9-11.94-4.69-16.72-9.01z" fill="#E0EBAD" stroke="#E0EBAD"/>
 <path d="m1946.8 1067.5c-0.44-3.19-0.38-6.41 0.01-9.58 0.42 3.17 0.42 6.39-0.01 9.58z" fill="#fff" stroke="#fff"/>
 <path d="m1295.7 1098.7c26.36-12.96 53.65-24.45 82.05-32.01 4.78 4.32 11.09 6.11 16.72 9.01 21.37 9.75 43.91 16.69 66.7 22.23 44.55 10.51 90.2 15.23 135.71 19.2-10.16 17.64-20.49 35.23-29.3 53.6-8.57 17.55-16.19 35.56-22.98 53.87-12.43 33.33-25.44 67.05-29.19 102.69-1.42 12.74 0.4 25.67 4.35 37.83-14.2-4.81-27-12.97-39.49-21.11-16.99-11.18-32.94-23.87-50.02-34.9-17.12-11.17-35.61-20.63-55.5-25.7-6.98-2.03-14.14-3.28-21.21-4.87-2.49-2.14-4.15-5.03-6.32-7.45-3.12-3.84-6.82-7.15-9.81-11.08 1.89-2.9 4.88-4.8 7.26-7.26 12.46-12.27 24.1-25.38 34.72-39.28 12.84-17.48 22.83-36.89 31.19-56.87 2.85-7.51 6.55-14.77 8.41-22.62-1.08 0.65-1.85 1.64-2.37 2.78-14.78 30.22-35.42 57.18-58.11 81.86-20.06 21.59-41.63 41.71-63.7 61.24-1.09 0.85-1.88 1.97-1.7 3.45 2.25 0.2 4.33-0.84 6.35-1.69 7.26-3.38 14.67-6.46 21.56-10.56 2.26-1.32 4.45-2.84 6.92-3.77 9.88 11.61 17.48 25.04 24.6 38.49 8.84 17.27 16.32 35.2 23.74 53.11 8.6 21.29 15.2 43.33 20.54 65.64 4.41 18.25 7.98 36.73 9.74 55.43 1.36 12.95 2.33 25.96 4.08 38.86-6.21 3.47-13.09 5.55-19.67 8.21-18.44 7.13-37.63 12.25-57.09 15.72-19.78 3-39.7 5.22-59.65 6.7-18.79-0.91-37.6-3.93-55.46-9.91-7.07-2.76-14.49-4.94-20.79-9.29 9.5 2.72 19.19 5.23 29.15 5.27 16.91 0.64 34.6-2.04 49.15-11.15 13.26-8.39 22.95-21.45 29.51-35.53 9.67-20.74 13.98-43.86 13.24-66.69-1.04-29.72-10.09-58.72-23.62-85.04 5.15-4.53 12.04-6.9 16.57-12.16 0.07-0.38 0.21-1.15 0.28-1.54-8.35 1.64-16.2 5.15-24.32 7.62-20.68 6.98-41.02 14.91-61.46 22.56-15.61 5.83-31.42 11.24-46.34 18.72-23.35 11.32-45.6 24.7-68.32 37.19-5.44-4.2-10.25-9.14-15.66-13.37-4.14-3.63-8.93-6.53-12.47-10.81 9.16-14.85 18.1-30.24 22.78-47.18-3.48-2.38-7.76-3.04-11.54-4.76-5.36-2.35-11.06-4.05-16.04-7.16 17.22-30.31 37.56-58.74 59.4-85.87 24.1-29.65 50.08-57.89 78.99-82.93 15.16-13.29 30.7-26.16 46.9-38.16 4.34-3.4 9.15-6.21 13.04-10.16 5.73-4.14 12.19-7.2 18.48-10.4z" fill="#98C849" stroke="#98C849"/>
 <path d="m1893.8 1101.9c14.01-6.35 28.48-11.8 43.32-15.92 6.53 4.89 13.46 9.36 21.27 11.99 3.48 1.63 8.02 2.09 10.42 5.39-0.55 2.52-3.35 3.82-5.43 5-18 8.23-38.22 9.31-56.56 16.55-31.25 11.64-58.05 31.97-87.15 47.78-12.13 6.25-24.39 13.12-38.11 15.06-18.07 2.86-36.26-1.69-53.17-7.81-20.18-7.27-39.43-17.03-60.08-23-24.09-6.33-49.31-7.28-74.04-5.15 2.32-6.13 6.03-11.59 9.09-17.36 4.59-7.69 9.08-15.49 14.28-22.78 3.18-0.38 6.35 0.37 9.52 0.71 6.27 0.87 12.57 1.48 18.84 2.41-3.64 4.99-5.7 11.05-6.86 17.07 18.53 1.18 36.54 6.51 53.53 13.83 17.74 7.62 35.31 15.95 54.03 20.98 12.87 3.23 26.66 4.58 39.56 0.69 8.87-2.48 16.36-8.02 23.82-13.2 26.94-18.87 53.79-38.29 83.72-52.24z" fill="#D6C900" stroke="#D6C900"/>
 <path d="m1625.1 1102.1c3.71-4.62 9.43-8.88 15.61-8.44 3.95 2.2 7.08 5.76 9.46 9.58-8.37 0.13-16.75-0.4-25.07-1.14z" fill="#599330" stroke="#599330"/>
 <path d="m1259.1 1118.3c6.1-2.92 11.51-7.4 18.11-9.16-3.89 3.95-8.7 6.76-13.04 10.16-16.2 12-31.74 24.87-46.9 38.16-28.91 25.04-54.89 53.28-78.99 82.93-21.84 27.13-42.18 55.56-59.4 85.87-3.33-0.85-5.94-3.7-9.41-3.9-10.4 16.91-21.75 33.39-35.58 47.72-5.75 5.79-11.37 11.87-17.98 16.7-3.19-1.48-6.08-3.59-8.71-5.89-1.15-4.43 0.54-9.05 1.24-13.45 7.86-33.58 26.66-63.36 47.69-90.22 23.45-29.41 51.27-55.04 80.8-78.23 38.48-30.1 79.97-56.16 122.17-80.69z" fill="#579A32" stroke="#579A32"/>
 <path d="m828.05 1146.2c4.62 3.78 8.9 8.08 14.34 10.74 9.6 5.41 20.61 7.41 31.47 8.27 5.11 17.31 13.36 33.5 21.78 49.39 9.6 16.84 20.67 33.08 34.38 46.85-4.04 5.44-8.75 10.37-12.81 15.82-3.74 4.36-6.66 9.34-10.33 13.74-1.16-0.15-1.82-1.25-2.59-1.95-11.19-13.32-22-27.01-31.36-41.69-11.28-17.48-20.61-36.17-28.73-55.3-6.03-15.04-12.02-30.19-16.15-45.87z" fill="#6C6CB1" stroke="#6C6CB1"/>
 <path d="m1588.1 1168.1c19.45-0.78 39.07-2.36 58.42 0.62 4.11 0.65 8.27 1.09 12.36 1.96-1.73 13.32-5.76 26.25-9.08 39.26-9.64 36.75-24.47 72.17-44.31 104.59-4.94 7.79-9.58 15.88-15.62 22.89-3.9-6.37-6.11-13.54-8.35-20.6-5.52-18.04-8.35-36.84-8.96-55.67 0.8-29.7 6.08-59.02 11.41-88.17 0.49-2.1 1.35-5.27 4.13-4.88z" fill="#599330" stroke="#599330"/>
 <path d="m1578.7 1183.8c1.8-3.59 2.75-7.64 5.25-10.85-5.33 29.15-10.61 58.47-11.41 88.17 0.61 18.83 3.44 37.63 8.96 55.67 2.24 7.06 4.45 14.23 8.35 20.6-2.37 4.27-6.09 7.6-9.38 11.17-6.34 6.44-13.01 12.87-21.31 16.72-6.25 3.18-13.61 5.05-20.56 3.55-7.2-9.95-8.99-22.67-8.49-34.67 1.48-27.76 11.76-53.97 21.33-79.76 8.87-23.61 16.87-47.59 27.26-70.6z" fill="#446F2A" stroke="#446F2A"/>
 <path d="m921.35 1282.5c4.42-5.17 8.47-10.7 13.47-15.32 3.26 3.53 6.61 6.98 10.19 10.2 6.38 5.61 12.32 11.7 19.01 16.95 14.48 12.47 30.09 23.53 45.22 35.17-2.72 8.57-6.2 16.95-8.05 25.8-1.67 6.21-2.01 12.64-3.13 18.95-6.23-3.05-11.39-7.9-16.96-11.97-23.01-17.76-44.57-37.41-64.16-58.88-2.01-2.33-4.64-4.28-5.86-7.16 2.65-5.09 6.91-9.13 10.27-13.74z" fill="#BD67A6" stroke="#BD67A6"/>
 <path d="m1364.2 1295.5c-1.41-1.15-1.61-3.93 0.89-2.85 0.54 1.19 0.24 2.15-0.89 2.85z" fill="#fff" stroke="#fff"/>
 <path d="m1288 1331.1c8.12-2.47 15.97-5.98 24.32-7.62-0.07 0.39-0.21 1.16-0.28 1.54-4.53 5.26-11.42 7.63-16.57 12.16 13.53 26.32 22.58 55.32 23.62 85.04 0.74 22.83-3.57 45.95-13.24 66.69-6.56 14.08-16.25 27.14-29.51 35.53-14.55 9.11-32.24 11.79-49.15 11.15-9.96-0.04-19.65-2.55-29.15-5.27-13.97-5.48-27.23-13.42-37.09-24.9-12.31-14.1-19.86-31.82-23.9-49.97-1.76-7.57-2.68-15.29-3.89-22.95-0.77-5.18-0.11-10.64-1.74-15.62-2.88-3.14-6.09-6.03-9.46-8.61-3.09 0.22-5.99 1.42-8.93 2.3-0.29-0.25-0.86-0.75-1.15-1 22.72-12.49 44.97-25.87 68.32-37.19 14.92-7.48 30.73-12.89 46.34-18.72 20.44-7.65 40.78-15.58 61.46-22.56m-15.59 17.3c-19.93 8.88-40.79 15.39-61.27 22.83-20.8 7.56-40.66 17.38-60.99 26.04-4.8 2.33-10.09 3.57-14.68 6.28 0.1 1.9 0.1 4.34 2.02 5.42 9.63 6.33 20.51 10.66 31.74 13.19 19.11 4.19 39.71 3.63 57.94-3.91 16.1-6.93 29.96-18.85 39.44-33.59 8.15-12.66 14.03-26.81 17.62-41.41-4.1 1.34-7.88 3.45-11.82 5.15m20.14 0.8c-2.31 12.6-6.13 25.01-12 36.43-6.5 12.87-16.06 23.99-27.33 32.92-0.25 1.49 0.8 2.82 1.39 4.16 3.76 6.75 7.26 13.67 10.22 20.83 7.86 18.79 8.91 39.49 9.62 59.58 4.46-3.42 7.9-7.95 11.19-12.46 9.57-13.72 14.71-30.02 17.71-46.34 4.58-25.22 2.46-51.34-4.27-75.98-1.98-6.43-3.43-13.14-6.53-19.14m-152.53 73.28c0.91 6.95 3.61 13.5 5.7 20.16 7.09 20.8 17.29 41.28 33.63 56.39 12.85 11.87 30.12 19.57 47.73 19.32-1.93-23.69-5.3-47.37-11.65-70.31-1.49-4.23-2-8.94-4.41-12.75-3.02-0.08-6.02 0.33-9.02 0.54-21.36 1.4-43.23-2.88-61.98-13.35m82.39 10.27c0.03 0.92 0.21 1.84 0.52 2.76 10.49 26.21 16.35 54.27 17.67 82.46 7.85-0.73 15.77-2.91 22.59-6.92 0.73-8.94-1.12-17.91-1.73-26.83-2.65-20.95-6.46-42.03-14.38-61.68-7.74 4.46-15.97 8.08-24.67 10.21z" fill="#693A0C" stroke="#693A0C"/>
 <path d="m1074.3 1330.6c7.74 3.75 15.28 7.99 23.44 10.84-3.12 8.82-7.68 17.06-11.78 25.46-2.56 4.84-5.01 9.77-7.98 14.39-6.96-4.97-13.37-10.64-20.2-15.78-1.95-1.46-3.63-3.24-5.16-5.1 8.01-9.35 15.01-19.49 21.68-29.81z" fill="#CBDE7A" stroke="#CBDE7A"/>
 <path d="m1272.4 1348.4c3.94-1.7 7.72-3.81 11.82-5.15-3.59 14.6-9.47 28.75-17.62 41.41-9.48 14.74-23.34 26.66-39.44 33.59-18.23 7.54-38.83 8.1-57.94 3.91-11.23-2.53-22.11-6.86-31.74-13.19-1.92-1.08-1.92-3.52-2.02-5.42 4.59-2.71 9.88-3.95 14.68-6.28 20.33-8.66 40.19-18.48 60.99-26.04 20.48-7.44 41.34-13.95 61.27-22.83z" fill="#CBDE7A" stroke="#CBDE7A"/>
 <path d="m1292.5 1349.2c3.1 6 4.55 12.71 6.53 19.14 6.73 24.64 8.85 50.76 4.27 75.98-3 16.32-8.14 32.62-17.71 46.34-3.29 4.51-6.73 9.04-11.19 12.46-0.71-20.09-1.76-40.79-9.62-59.58-2.96-7.16-6.46-14.08-10.22-20.83-0.59-1.34-1.64-2.67-1.39-4.16 11.27-8.93 20.83-20.05 27.33-32.92 5.87-11.42 9.69-23.83 12-36.43z" fill="#CBDE7A" stroke="#CBDE7A"/>
 <path d="m1032.5 1380.5c7.29-6.1 13.68-13.14 20.1-20.11 1.53 1.86 3.21 3.64 5.16 5.1 6.83 5.14 13.24 10.81 20.2 15.78-5.1 10.1-11.35 19.62-17.82 28.91-2.65 3.29-4.71 7.22-8.08 9.85-5-2.3-9.12-6.12-13.66-9.17-7.42-5.46-14.59-11.34-20.93-18.02 4.7-4.44 10.32-7.86 15.03-12.34z" fill="#90C148" stroke="#90C148"/>
 <path d="m1056.3 1423c9.34-12.39 18.67-24.83 27.39-37.69 3.54 4.28 8.33 7.18 12.47 10.81 5.41 4.23 10.22 9.17 15.66 13.37 0.29 0.25 0.86 0.75 1.15 1 6.87 7.16 13.49 14.54 20.13 21.93 1.21 7.66 2.13 15.38 3.89 22.95 4.04 18.15 11.59 35.87 23.9 49.97 9.86 11.48 23.12 19.42 37.09 24.9 6.3 4.35 13.72 6.53 20.79 9.29 17.86 5.98 36.67 9 55.46 9.91-14.27 1.43-28.61 2.36-42.94 3.2-19.05 1.25-38.43 1.56-57.16-2.64-10.17-2.25-20.27-6.61-27.39-14.43-4.79-5.14-7.66-11.69-9.77-18.3-4.32-12.34-5.71-25.65-11.58-37.44-5.43-11.53-14.99-20.44-25.06-27.94-14.18-10.37-29.36-19.28-44.03-28.89z" fill="#579A32" stroke="#579A32"/>
 <path d="m1113 1410.5c2.94-0.88 5.84-2.08 8.93-2.3 3.37 2.58 6.58 5.47 9.46 8.61 1.63 4.98 0.97 10.44 1.74 15.62-6.64-7.39-13.26-14.77-20.13-21.93z" fill="#98C849" stroke="#98C849"/>
 <path d="m1140 1422.4c18.75 10.47 40.62 14.75 61.98 13.35 3-0.21 6-0.62 9.02-0.54 2.41 3.81 2.92 8.52 4.41 12.75 6.35 22.94 9.72 46.62 11.65 70.31-17.61 0.25-34.88-7.45-47.73-19.32-16.34-15.11-26.54-35.59-33.63-56.39-2.09-6.66-4.79-13.21-5.7-20.16z" fill="#CBDE7A" stroke="#CBDE7A"/>
 <path d="m1222.4 1432.7c8.7-2.13 16.93-5.75 24.67-10.21 7.92 19.65 11.73 40.73 14.38 61.68 0.61 8.92 2.46 17.89 1.73 26.83-6.82 4.01-14.74 6.19-22.59 6.92-1.32-28.19-7.18-56.25-17.67-82.46-0.31-0.92-0.49-1.84-0.52-2.76z" fill="#CBDE7A" stroke="#CBDE7A"/>
 <path d="m1423.3 1488c1.23 3.95 0.27 8.16 0.53 12.23-0.24 4.05 0.65 8.25-0.5 12.22 0.09-8.16 0-16.31-0.03-24.45z" fill="#FBD39C" stroke="#FBD39C"/>
 <path d="m1022.3 1493.4c17.15-3.25 34.4 2.14 50.23 8.4 12.51 5.02 24.56 11.11 37.18 15.87 3.79 1.63 7.89 2.51 11.59 4.37 1.63 3.54 3.09 7.23 3.91 11.07-0.12 9.77 1.17 19.78 5.34 28.72 6.52 14.96 17.53 27.8 30.96 37.02 2.98 1.99 5.95 4 8.89 6.08-12.4 2.32-25.16 0.59-37.5-1.35-38.13-6.47-73.33-23.16-109.15-36.97-10.19-3.72-20.23-8.11-30.83-10.5 3.95 4.46 10.49 5.55 15.01 9.43 11.74 38.6 28.91 75.35 39.66 114.27 2.62 9.25 5.49 18.51 6.67 28.09-13.63 9.39-25.46 21.28-39.78 29.7-5.63 3.14-12.33 6.23-18.84 4.08-4.77-1.45-7.54-5.92-10.07-9.86-5.61-8.79-9.63-18.59-16.28-26.69-7.06-9.08-18.76-14.33-30.22-13.63-10.42 0.08-20.22 4.01-30.2 6.44 17.82-76.95 57.72-148.58 113.43-204.54z" fill="#F9EE09" stroke="#F9EE09"/>
 <path d="m987.35 1518.5c8.37-11.93 20.19-22.43 34.94-25.09-55.71 55.96-95.61 127.59-113.43 204.54-3.59 1.65-7.66 2.29-11.58 1.94-3.54-0.62-5.81-4.24-5.86-7.65-0.43-8.34 2.31-16.39 4.34-24.36 10.26-35.36 30.19-66.89 51.44-96.59 12.96-17.92 26.63-35.3 40.15-52.79z" fill="#F9F6B3" stroke="#F9F6B3"/>
 <path d="m1115.4 1508.2c-0.32-1.48 0.24-2.06 1.69-1.73 0.17 1.32-0.4 1.89-1.69 1.73z" fill="#fff" stroke="#fff"/>
 <path d="m1125.2 1533.1c3.74 5.86 6.59 12.43 11.77 17.27 12.1 12 29.55 16.23 45.95 18.25 15.59 1.99 31.37 1.48 47.04 0.97-1.46 3.45-4.7 5.64-7.13 8.37-13.92 14.28-32.39 24.9-52.44 26.96-2.94-2.08-5.91-4.09-8.89-6.08-13.43-9.22-24.44-22.06-30.96-37.02-4.17-8.94-5.46-18.95-5.34-28.72z" fill="#D6C900" stroke="#D6C900"/>
 <path d="m1007.9 1565.5c9.62 4.43 18.64 10.1 28.15 14.8 2.39 0.94 3.42 3.35 4.37 5.57 15.86 34.84 38.52 66.65 49.37 103.68 1.52 5.44 3 10.92 4.03 16.49-4.2-1.43-8.25-3.49-12.71-3.93-9.3-1.12-18.63 1.61-26.88 5.75-1.18-9.58-4.05-18.84-6.67-28.09-10.75-38.92-27.92-75.67-39.66-114.27z" fill="#D6C900" stroke="#D6C900"/>
 <path d="m1056.6 1592.5c-1.36-1.71 1.7-1.71 2.04-0.26l-0.43 0.73c-0.4-0.12-1.21-0.35-1.61-0.47z" fill="#D9CFC4" stroke="#D9CFC4"/>
 <path d="m1059.4 1592.5c0.14 0.03 0.4 0.1 0.53 0.13-0.13-0.03-0.39-0.1-0.53-0.13z" fill="#F3EFEB" stroke="#F3EFEB"/>
</svg>
