<?xml version="1.0" encoding="UTF-8"?>
<svg viewBox="0 0 317.5 317.5" xmlns="http://www.w3.org/2000/svg">
 <g transform="translate(-166.29 -132.56)">
  <path transform="translate(171.29 139.06)" d="m153.75-6.5c-87.557 0-158.75 71.193-158.75 158.75s71.193 158.75 158.75 158.75 158.75-71.193 158.75-158.75-71.193-158.75-158.75-158.75zm0 14c79.975 0 144.75 64.775 144.75 144.75-1e-5 54.585-30.199 102.06-74.781 126.72-7.2926-21.143-37.941-131.3-41.938-144.62 4.7033-4.7029 10.735-12.678 13.094-18.688 15.968 6.4928 43.007 4.1049 52.406-13.844-13.153-11.073-37.11-14.675-49.812-5.5312-1.703-6.2473-2.6721-9.8745-8.0938-14.531l11.312-13.594c0.91261 0.20881 1.8681 0.3125 2.8438 0.3125 7.0035 0 12.688-5.684 12.688-12.688s-5.684-12.688-12.688-12.688-12.688 5.684-12.688 12.688c0 1.9119 0.42909 3.7173 1.1875 5.3438l-11.562 14.312c-3.0749-2.1566-6.2727-4.0284-9.9375-4.875l4.625-19c5.8408-1.1359 10.25-6.2974 10.25-12.469 0-7.0035-5.684-12.688-12.688-12.688s-12.688 5.684-12.688 12.688c0 3.6371 1.5454 6.9047 4 9.2188l-4.5312 19.594c-6.7837-1.1522-9.7572 0.14277-15.938 2.2188-5.6138-16.497-26.691-36.288-46.656-31.094 0.63274 17.033 16.583 40.401 31.75 43.844-10.454 19.575-7.6096 39.309-14.594 61.219-9.8392 25.188-42.547 47.792-49 64.312-7.3812 18.896 16.133 42.796 32.344 49.062s47.4 2.8958 54.781-16c7.1073-18.195 0.84834-52.031 10.688-77.219 0.33219-0.85041 0.68408-1.6833 1.0312-2.5 4.6456 18.94 7.0518 29.531 22.219 99.375 5.0137-0.97306 6.1666-0.53221 0 0l6.875 30.469c-12.485 3.507-25.64 5.4062-39.25 5.4062-79.975-1e-5 -144.75-64.775-144.75-144.75s64.775-144.75 144.75-144.75z" fill="#fff500"/>
  <path d="m377.42 419.75c-0.68853-2.5826-4.2161-6.9455-5.0938-8.75-3.7094-5.1989-7.3311-12.415-15.25-11.469l6.9928 31.177c7.7503-2.3672 15.549-2.9188 13.351-10.959zm-97.969-234.22c-0.62502 0.00506-1.2153 0.06957-1.7812 0.1875 0.35297 10.204 17.87 29.415 26.344 30.906 1.7807-1.8577 3.5268-3.3982 5.4062-4.875-5.1167-14.022-20.593-26.295-29.969-26.219zm107.75 49.75c-6.9186 0.29237-13.854 2.1824-18.25 5.1875-0.05722 1.7018-0.62619 6.8512-0.6875 8.875 9.0738 4.4565 35.094 3.727 40.188-6.4375-3.4774-5.766-12.355-8.0009-21.25-7.625zm-80.469 13.281c-2.251 0.15451-4.0694 1.2264-5 3.4375-2.0156 4.789-0.70567 9.4342 3.5938 11.219 4.1487 1.722 8.2825 1.0653 10.125-3.6875 1.8574-4.5309-0.53886-8.8269-4.2812-10.312-1.5752-0.51285-3.0869-0.74895-4.4375-0.65625zm26.25 11.688c-2.1954 0.03574-4.1188 1.1034-5.5 3.4375-2.733 4.6183-0.63215 9.0706 2.2188 10.75 2.7876 1.6421 8.625 1.7511 10.844-2.5938 2.462-4.0494 0.20808-8.8506-3.375-10.594-1.4554-0.67192-2.8702-1.0214-4.1875-1zm25.688 60.531c-1.0145 0.03273-1.9934 0.44689-2.9375 1.3125-3.7813 3.7748 1.1649 17.488 2.6875 23.25 2.0475 7.7486 9.4191 24.375 22.219 24.375-1.753-6.0419-10.881-37.618-12.125-41.656-3.4631-4.128-6.8002-7.3794-9.8438-7.2812zm-106.44 37.719c-2.865-0.0231-5.3374 1.22-6.25 3.4062-1.3274 3.18 1.148 7.1996 5.5 8.9688s8.9538 0.6175 10.281-2.5625-1.148-7.1996-5.5-8.9688c-1.36-0.55284-2.729-0.83325-4.0312-0.84375zm43.312 18.094c-2.865-0.02309-5.3374 1.22-6.25 3.4062-1.3274 3.18 1.1168 7.1997 5.4688 8.9688s8.9851 0.61751 10.312-2.5625-1.148-7.1996-5.5-8.9688c-1.36-0.55284-2.729-0.83325-4.0312-0.84375z" fill="#4b1b00"/>
 </g>
</svg>
