<svg xmlns="http://www.w3.org/2000/svg" xmlns:xlink="http://www.w3.org/1999/xlink" version="1.1" width="256" height="256" viewBox="0 0 256 256" xml:space="preserve">

<defs>
</defs>
<g style="stroke: none; stroke-width: 0; stroke-dasharray: none; stroke-linecap: butt; stroke-linejoin: miter; stroke-miterlimit: 10; fill: none; fill-rule: nonzero; opacity: 1;" transform="translate(1.4065934065934016 1.4065934065934016) scale(2.81 2.81)" >
	<path d="M 78.521 43.723 c -2.416 0 -4.562 1.159 -5.928 2.946 l -11.067 -2.677 c 0.011 -0.236 0.036 -0.469 0.036 -0.708 c 0 -3.147 -0.939 -6.074 -2.537 -8.535 l 15.224 -16.195 c 1.264 0.599 2.67 0.945 4.159 0.945 c 5.376 0 9.749 -4.374 9.749 -9.749 c 0 -5.376 -4.373 -9.75 -9.749 -9.75 s -9.749 4.374 -9.749 9.75 c 0 1.704 0.442 3.305 1.213 4.7 L 54.856 30.424 c -2.556 -1.797 -5.662 -2.862 -9.017 -2.862 c -3.222 0 -6.219 0.977 -8.715 2.647 L 25.277 18.234 c 0.338 -0.851 0.53 -1.775 0.53 -2.745 c 0 -4.117 -3.349 -7.466 -7.465 -7.466 c -4.117 0 -7.466 3.349 -7.466 7.466 s 3.349 7.466 7.466 7.466 c 0.941 0 1.839 -0.182 2.669 -0.502 l 11.848 11.976 c -1.727 2.524 -2.741 5.572 -2.741 8.855 c 0 2.119 0.427 4.139 1.19 5.985 l -13.63 8.984 c -1.67 -1.339 -3.784 -2.145 -6.086 -2.145 c -5.376 0 -9.75 4.373 -9.75 9.749 s 4.374 9.75 9.75 9.75 s 9.75 -4.374 9.75 -9.75 c 0 -0.9 -0.132 -1.767 -0.361 -2.595 l 13.636 -8.988 c 2.856 2.916 6.829 4.732 11.223 4.732 c 1.09 0 2.155 -0.112 3.183 -0.325 l 4.225 11.736 c -2.712 1.97 -4.486 5.157 -4.486 8.757 c 0 5.97 4.856 10.826 10.826 10.826 s 10.826 -4.856 10.826 -10.826 s -4.856 -10.827 -10.826 -10.827 c -0.235 0 -0.465 0.021 -0.697 0.035 l -4.33 -12.027 c 2.408 -1.612 4.336 -3.876 5.557 -6.531 l 11.059 2.675 c 0.622 3.492 3.675 6.155 7.343 6.155 c 4.116 0 7.466 -3.35 7.466 -7.466 S 82.637 43.723 78.521 43.723 z" style="stroke: none; stroke-width: 1; stroke-dasharray: none; stroke-linecap: butt; stroke-linejoin: miter; stroke-miterlimit: 10; fill: rgb(0,0,0); fill-rule: nonzero; opacity: 1;" transform=" matrix(1 0 0 1 0 0) " stroke-linecap="round" />
</g>
</svg>